<?xml version="1.0" encoding="utf-8" standalone="no"?>
<!DOCTYPE svg PUBLIC "-//W3C//DTD SVG 1.1//EN"
  "http://www.w3.org/Graphics/SVG/1.1/DTD/svg11.dtd">
<svg xmlns:xlink="http://www.w3.org/1999/xlink" width="720pt" height="288pt" viewBox="0 0 720 288" xmlns="http://www.w3.org/2000/svg" version="1.1">
 <metadata>
  <rdf:RDF xmlns:dc="http://purl.org/dc/elements/1.1/" xmlns:cc="http://creativecommons.org/ns#" xmlns:rdf="http://www.w3.org/1999/02/22-rdf-syntax-ns#">
   <cc:Work>
    <dc:type rdf:resource="http://purl.org/dc/dcmitype/StillImage"/>
    <dc:date>2024-02-23T09:48:55.751632</dc:date>
    <dc:format>image/svg+xml</dc:format>
    <dc:creator>
     <cc:Agent>
      <dc:title>Matplotlib v3.8.2, https://matplotlib.org/</dc:title>
     </cc:Agent>
    </dc:creator>
   </cc:Work>
  </rdf:RDF>
 </metadata>
 <defs>
  <style type="text/css">*{stroke-linejoin: round; stroke-linecap: butt}</style>
 </defs>
 <g id="figure_1">
  <g id="patch_1">
   <path d="M 0 288 
L 720 288 
L 720 0 
L 0 0 
z
" style="fill: #ffffff"/>
  </g>
  <g id="axes_1">
   <g id="patch_2">
    <path d="M 70.04 216.203692 
L 689.76 216.203692 
L 689.76 30.24 
L 70.04 30.24 
z
" style="fill: #ffffff"/>
   </g>
   <g id="matplotlib.axis_1">
    <g id="xtick_1">
     <g id="line2d_1">
      <path d="M 70.04 216.203692 
L 70.04 30.24 
" clip-path="url(#p30fe57f2bc)" style="fill: none; stroke: #cccccc; stroke-width: 0.8; stroke-linecap: round"/>
     </g>
     <g id="text_1">
      <!-- 0:00 -->
      <g style="fill: #262626" transform="translate(63.159796 249.4252) rotate(-45) scale(0.15 -0.15)">
       <defs>
        <path id="TimesNewRomanPSMT-30" d="M 231 2094 
Q 231 2819 450 3342 
Q 669 3866 1031 4122 
Q 1313 4325 1613 4325 
Q 2100 4325 2488 3828 
Q 2972 3213 2972 2159 
Q 2972 1422 2759 906 
Q 2547 391 2217 158 
Q 1888 -75 1581 -75 
Q 975 -75 572 641 
Q 231 1244 231 2094 
z
M 844 2016 
Q 844 1141 1059 588 
Q 1238 122 1591 122 
Q 1759 122 1940 273 
Q 2122 425 2216 781 
Q 2359 1319 2359 2297 
Q 2359 3022 2209 3506 
Q 2097 3866 1919 4016 
Q 1791 4119 1609 4119 
Q 1397 4119 1231 3928 
Q 1006 3669 925 3112 
Q 844 2556 844 2016 
z
" transform="scale(0.015625)"/>
        <path id="TimesNewRomanPSMT-3a" d="M 903 2950 
Q 1047 2950 1148 2848 
Q 1250 2747 1250 2603 
Q 1250 2459 1148 2357 
Q 1047 2256 903 2256 
Q 759 2256 657 2357 
Q 556 2459 556 2603 
Q 556 2747 657 2848 
Q 759 2950 903 2950 
z
M 897 609 
Q 1044 609 1145 506 
Q 1247 403 1247 259 
Q 1247 116 1144 14 
Q 1041 -88 897 -88 
Q 753 -88 651 14 
Q 550 116 550 259 
Q 550 403 651 506 
Q 753 609 897 609 
z
" transform="scale(0.015625)"/>
       </defs>
       <use xlink:href="#TimesNewRomanPSMT-30"/>
       <use xlink:href="#TimesNewRomanPSMT-3a" x="50"/>
       <use xlink:href="#TimesNewRomanPSMT-30" x="77.783203"/>
       <use xlink:href="#TimesNewRomanPSMT-30" x="127.783203"/>
      </g>
     </g>
    </g>
    <g id="xtick_2">
     <g id="line2d_2">
      <path d="M 95.951638 216.203692 
L 95.951638 30.24 
" clip-path="url(#p30fe57f2bc)" style="fill: none; stroke: #cccccc; stroke-width: 0.8; stroke-linecap: round"/>
     </g>
     <g id="text_2">
      <!-- 1:00 -->
      <g style="fill: #262626" transform="translate(89.071433 249.4252) rotate(-45) scale(0.15 -0.15)">
       <defs>
        <path id="TimesNewRomanPSMT-31" d="M 750 3822 
L 1781 4325 
L 1884 4325 
L 1884 747 
Q 1884 391 1914 303 
Q 1944 216 2037 169 
Q 2131 122 2419 116 
L 2419 0 
L 825 0 
L 825 116 
Q 1125 122 1212 167 
Q 1300 213 1334 289 
Q 1369 366 1369 747 
L 1369 3034 
Q 1369 3497 1338 3628 
Q 1316 3728 1258 3775 
Q 1200 3822 1119 3822 
Q 1003 3822 797 3725 
L 750 3822 
z
" transform="scale(0.015625)"/>
       </defs>
       <use xlink:href="#TimesNewRomanPSMT-31"/>
       <use xlink:href="#TimesNewRomanPSMT-3a" x="50"/>
       <use xlink:href="#TimesNewRomanPSMT-30" x="77.783203"/>
       <use xlink:href="#TimesNewRomanPSMT-30" x="127.783203"/>
      </g>
     </g>
    </g>
    <g id="xtick_3">
     <g id="line2d_3">
      <path d="M 121.863275 216.203692 
L 121.863275 30.24 
" clip-path="url(#p30fe57f2bc)" style="fill: none; stroke: #cccccc; stroke-width: 0.8; stroke-linecap: round"/>
     </g>
     <g id="text_3">
      <!-- 2:00 -->
      <g style="fill: #262626" transform="translate(114.983071 249.4252) rotate(-45) scale(0.15 -0.15)">
       <defs>
        <path id="TimesNewRomanPSMT-32" d="M 2934 816 
L 2638 0 
L 138 0 
L 138 116 
Q 1241 1122 1691 1759 
Q 2141 2397 2141 2925 
Q 2141 3328 1894 3587 
Q 1647 3847 1303 3847 
Q 991 3847 742 3664 
Q 494 3481 375 3128 
L 259 3128 
Q 338 3706 661 4015 
Q 984 4325 1469 4325 
Q 1984 4325 2329 3994 
Q 2675 3663 2675 3213 
Q 2675 2891 2525 2569 
Q 2294 2063 1775 1497 
Q 997 647 803 472 
L 1909 472 
Q 2247 472 2383 497 
Q 2519 522 2628 598 
Q 2738 675 2819 816 
L 2934 816 
z
" transform="scale(0.015625)"/>
       </defs>
       <use xlink:href="#TimesNewRomanPSMT-32"/>
       <use xlink:href="#TimesNewRomanPSMT-3a" x="50"/>
       <use xlink:href="#TimesNewRomanPSMT-30" x="77.783203"/>
       <use xlink:href="#TimesNewRomanPSMT-30" x="127.783203"/>
      </g>
     </g>
    </g>
    <g id="xtick_4">
     <g id="line2d_4">
      <path d="M 147.774913 216.203692 
L 147.774913 30.24 
" clip-path="url(#p30fe57f2bc)" style="fill: none; stroke: #cccccc; stroke-width: 0.8; stroke-linecap: round"/>
     </g>
     <g id="text_4">
      <!-- 3:00 -->
      <g style="fill: #262626" transform="translate(140.894709 249.4252) rotate(-45) scale(0.15 -0.15)">
       <defs>
        <path id="TimesNewRomanPSMT-33" d="M 325 3431 
Q 506 3859 782 4092 
Q 1059 4325 1472 4325 
Q 1981 4325 2253 3994 
Q 2459 3747 2459 3466 
Q 2459 3003 1878 2509 
Q 2269 2356 2469 2072 
Q 2669 1788 2669 1403 
Q 2669 853 2319 450 
Q 1863 -75 997 -75 
Q 569 -75 414 31 
Q 259 138 259 259 
Q 259 350 332 419 
Q 406 488 509 488 
Q 588 488 669 463 
Q 722 447 909 348 
Q 1097 250 1169 231 
Q 1284 197 1416 197 
Q 1734 197 1970 444 
Q 2206 691 2206 1028 
Q 2206 1275 2097 1509 
Q 2016 1684 1919 1775 
Q 1784 1900 1550 2001 
Q 1316 2103 1072 2103 
L 972 2103 
L 972 2197 
Q 1219 2228 1467 2375 
Q 1716 2522 1828 2728 
Q 1941 2934 1941 3181 
Q 1941 3503 1739 3701 
Q 1538 3900 1238 3900 
Q 753 3900 428 3381 
L 325 3431 
z
" transform="scale(0.015625)"/>
       </defs>
       <use xlink:href="#TimesNewRomanPSMT-33"/>
       <use xlink:href="#TimesNewRomanPSMT-3a" x="50"/>
       <use xlink:href="#TimesNewRomanPSMT-30" x="77.783203"/>
       <use xlink:href="#TimesNewRomanPSMT-30" x="127.783203"/>
      </g>
     </g>
    </g>
    <g id="xtick_5">
     <g id="line2d_5">
      <path d="M 173.686551 216.203692 
L 173.686551 30.24 
" clip-path="url(#p30fe57f2bc)" style="fill: none; stroke: #cccccc; stroke-width: 0.8; stroke-linecap: round"/>
     </g>
     <g id="text_5">
      <!-- 4:00 -->
      <g style="fill: #262626" transform="translate(166.806346 249.4252) rotate(-45) scale(0.15 -0.15)">
       <defs>
        <path id="TimesNewRomanPSMT-34" d="M 2978 1563 
L 2978 1119 
L 2409 1119 
L 2409 0 
L 1894 0 
L 1894 1119 
L 100 1119 
L 100 1519 
L 2066 4325 
L 2409 4325 
L 2409 1563 
L 2978 1563 
z
M 1894 1563 
L 1894 3666 
L 406 1563 
L 1894 1563 
z
" transform="scale(0.015625)"/>
       </defs>
       <use xlink:href="#TimesNewRomanPSMT-34"/>
       <use xlink:href="#TimesNewRomanPSMT-3a" x="50"/>
       <use xlink:href="#TimesNewRomanPSMT-30" x="77.783203"/>
       <use xlink:href="#TimesNewRomanPSMT-30" x="127.783203"/>
      </g>
     </g>
    </g>
    <g id="xtick_6">
     <g id="line2d_6">
      <path d="M 199.598188 216.203692 
L 199.598188 30.24 
" clip-path="url(#p30fe57f2bc)" style="fill: none; stroke: #cccccc; stroke-width: 0.8; stroke-linecap: round"/>
     </g>
     <g id="text_6">
      <!-- 5:00 -->
      <g style="fill: #262626" transform="translate(192.717984 249.4252) rotate(-45) scale(0.15 -0.15)">
       <defs>
        <path id="TimesNewRomanPSMT-35" d="M 2778 4238 
L 2534 3706 
L 1259 3706 
L 981 3138 
Q 1809 3016 2294 2522 
Q 2709 2097 2709 1522 
Q 2709 1188 2573 903 
Q 2438 619 2231 419 
Q 2025 219 1772 97 
Q 1413 -75 1034 -75 
Q 653 -75 479 54 
Q 306 184 306 341 
Q 306 428 378 495 
Q 450 563 559 563 
Q 641 563 702 538 
Q 763 513 909 409 
Q 1144 247 1384 247 
Q 1750 247 2026 523 
Q 2303 800 2303 1197 
Q 2303 1581 2056 1914 
Q 1809 2247 1375 2428 
Q 1034 2569 447 2591 
L 1259 4238 
L 2778 4238 
z
" transform="scale(0.015625)"/>
       </defs>
       <use xlink:href="#TimesNewRomanPSMT-35"/>
       <use xlink:href="#TimesNewRomanPSMT-3a" x="50"/>
       <use xlink:href="#TimesNewRomanPSMT-30" x="77.783203"/>
       <use xlink:href="#TimesNewRomanPSMT-30" x="127.783203"/>
      </g>
     </g>
    </g>
    <g id="xtick_7">
     <g id="line2d_7">
      <path d="M 225.509826 216.203692 
L 225.509826 30.24 
" clip-path="url(#p30fe57f2bc)" style="fill: none; stroke: #cccccc; stroke-width: 0.8; stroke-linecap: round"/>
     </g>
     <g id="text_7">
      <!-- 6:00 -->
      <g style="fill: #262626" transform="translate(218.629622 249.4252) rotate(-45) scale(0.15 -0.15)">
       <defs>
        <path id="TimesNewRomanPSMT-36" d="M 2869 4325 
L 2869 4209 
Q 2456 4169 2195 4045 
Q 1934 3922 1679 3669 
Q 1425 3416 1258 3105 
Q 1091 2794 978 2366 
Q 1428 2675 1881 2675 
Q 2316 2675 2634 2325 
Q 2953 1975 2953 1425 
Q 2953 894 2631 456 
Q 2244 -75 1606 -75 
Q 1172 -75 869 213 
Q 275 772 275 1663 
Q 275 2231 503 2743 
Q 731 3256 1154 3653 
Q 1578 4050 1965 4187 
Q 2353 4325 2688 4325 
L 2869 4325 
z
M 925 2138 
Q 869 1716 869 1456 
Q 869 1156 980 804 
Q 1091 453 1309 247 
Q 1469 100 1697 100 
Q 1969 100 2183 356 
Q 2397 613 2397 1088 
Q 2397 1622 2184 2012 
Q 1972 2403 1581 2403 
Q 1463 2403 1327 2353 
Q 1191 2303 925 2138 
z
" transform="scale(0.015625)"/>
       </defs>
       <use xlink:href="#TimesNewRomanPSMT-36"/>
       <use xlink:href="#TimesNewRomanPSMT-3a" x="50"/>
       <use xlink:href="#TimesNewRomanPSMT-30" x="77.783203"/>
       <use xlink:href="#TimesNewRomanPSMT-30" x="127.783203"/>
      </g>
     </g>
    </g>
    <g id="xtick_8">
     <g id="line2d_8">
      <path d="M 251.421463 216.203692 
L 251.421463 30.24 
" clip-path="url(#p30fe57f2bc)" style="fill: none; stroke: #cccccc; stroke-width: 0.8; stroke-linecap: round"/>
     </g>
     <g id="text_8">
      <!-- 7:00 -->
      <g style="fill: #262626" transform="translate(244.541259 249.4252) rotate(-45) scale(0.15 -0.15)">
       <defs>
        <path id="TimesNewRomanPSMT-37" d="M 644 4238 
L 2916 4238 
L 2916 4119 
L 1503 -88 
L 1153 -88 
L 2419 3728 
L 1253 3728 
Q 900 3728 750 3644 
Q 488 3500 328 3200 
L 238 3234 
L 644 4238 
z
" transform="scale(0.015625)"/>
       </defs>
       <use xlink:href="#TimesNewRomanPSMT-37"/>
       <use xlink:href="#TimesNewRomanPSMT-3a" x="50"/>
       <use xlink:href="#TimesNewRomanPSMT-30" x="77.783203"/>
       <use xlink:href="#TimesNewRomanPSMT-30" x="127.783203"/>
      </g>
     </g>
    </g>
    <g id="xtick_9">
     <g id="line2d_9">
      <path d="M 277.333101 216.203692 
L 277.333101 30.24 
" clip-path="url(#p30fe57f2bc)" style="fill: none; stroke: #cccccc; stroke-width: 0.8; stroke-linecap: round"/>
     </g>
     <g id="text_9">
      <!-- 8:00 -->
      <g style="fill: #262626" transform="translate(270.452897 249.4252) rotate(-45) scale(0.15 -0.15)">
       <defs>
        <path id="TimesNewRomanPSMT-38" d="M 1228 2134 
Q 725 2547 579 2797 
Q 434 3047 434 3316 
Q 434 3728 753 4026 
Q 1072 4325 1600 4325 
Q 2113 4325 2425 4047 
Q 2738 3769 2738 3413 
Q 2738 3175 2569 2928 
Q 2400 2681 1866 2347 
Q 2416 1922 2594 1678 
Q 2831 1359 2831 1006 
Q 2831 559 2490 242 
Q 2150 -75 1597 -75 
Q 994 -75 656 303 
Q 388 606 388 966 
Q 388 1247 577 1523 
Q 766 1800 1228 2134 
z
M 1719 2469 
Q 2094 2806 2194 3001 
Q 2294 3197 2294 3444 
Q 2294 3772 2109 3958 
Q 1925 4144 1606 4144 
Q 1288 4144 1088 3959 
Q 888 3775 888 3528 
Q 888 3366 970 3203 
Q 1053 3041 1206 2894 
L 1719 2469 
z
M 1375 2016 
Q 1116 1797 991 1539 
Q 866 1281 866 981 
Q 866 578 1086 336 
Q 1306 94 1647 94 
Q 1984 94 2187 284 
Q 2391 475 2391 747 
Q 2391 972 2272 1150 
Q 2050 1481 1375 2016 
z
" transform="scale(0.015625)"/>
       </defs>
       <use xlink:href="#TimesNewRomanPSMT-38"/>
       <use xlink:href="#TimesNewRomanPSMT-3a" x="50"/>
       <use xlink:href="#TimesNewRomanPSMT-30" x="77.783203"/>
       <use xlink:href="#TimesNewRomanPSMT-30" x="127.783203"/>
      </g>
     </g>
    </g>
    <g id="xtick_10">
     <g id="line2d_10">
      <path d="M 303.244739 216.203692 
L 303.244739 30.24 
" clip-path="url(#p30fe57f2bc)" style="fill: none; stroke: #cccccc; stroke-width: 0.8; stroke-linecap: round"/>
     </g>
     <g id="text_10">
      <!-- 9:00 -->
      <g style="fill: #262626" transform="translate(296.364534 249.4252) rotate(-45) scale(0.15 -0.15)">
       <defs>
        <path id="TimesNewRomanPSMT-39" d="M 338 -88 
L 338 28 
Q 744 34 1094 217 
Q 1444 400 1770 856 
Q 2097 1313 2225 1859 
Q 1734 1544 1338 1544 
Q 891 1544 572 1889 
Q 253 2234 253 2806 
Q 253 3363 572 3797 
Q 956 4325 1575 4325 
Q 2097 4325 2469 3894 
Q 2925 3359 2925 2575 
Q 2925 1869 2578 1258 
Q 2231 647 1613 244 
Q 1109 -88 516 -88 
L 338 -88 
z
M 2275 2091 
Q 2331 2497 2331 2741 
Q 2331 3044 2228 3395 
Q 2125 3747 1936 3934 
Q 1747 4122 1506 4122 
Q 1228 4122 1018 3872 
Q 809 3622 809 3128 
Q 809 2469 1088 2097 
Q 1291 1828 1588 1828 
Q 1731 1828 1928 1897 
Q 2125 1966 2275 2091 
z
" transform="scale(0.015625)"/>
       </defs>
       <use xlink:href="#TimesNewRomanPSMT-39"/>
       <use xlink:href="#TimesNewRomanPSMT-3a" x="50"/>
       <use xlink:href="#TimesNewRomanPSMT-30" x="77.783203"/>
       <use xlink:href="#TimesNewRomanPSMT-30" x="127.783203"/>
      </g>
     </g>
    </g>
    <g id="xtick_11">
     <g id="line2d_11">
      <path d="M 329.156376 216.203692 
L 329.156376 30.24 
" clip-path="url(#p30fe57f2bc)" style="fill: none; stroke: #cccccc; stroke-width: 0.8; stroke-linecap: round"/>
     </g>
     <g id="text_11">
      <!-- 10:00 -->
      <g style="fill: #262626" transform="translate(319.624522 254.728501) rotate(-45) scale(0.15 -0.15)">
       <use xlink:href="#TimesNewRomanPSMT-31"/>
       <use xlink:href="#TimesNewRomanPSMT-30" x="50"/>
       <use xlink:href="#TimesNewRomanPSMT-3a" x="100"/>
       <use xlink:href="#TimesNewRomanPSMT-30" x="127.783203"/>
       <use xlink:href="#TimesNewRomanPSMT-30" x="177.783203"/>
      </g>
     </g>
    </g>
    <g id="xtick_12">
     <g id="line2d_12">
      <path d="M 355.068014 216.203692 
L 355.068014 30.24 
" clip-path="url(#p30fe57f2bc)" style="fill: none; stroke: #cccccc; stroke-width: 0.8; stroke-linecap: round"/>
     </g>
     <g id="text_12">
      <!-- 11:00 -->
      <g style="fill: #262626" transform="translate(345.735033 254.330753) rotate(-45) scale(0.15 -0.15)">
       <use xlink:href="#TimesNewRomanPSMT-31"/>
       <use xlink:href="#TimesNewRomanPSMT-31" x="46.25"/>
       <use xlink:href="#TimesNewRomanPSMT-3a" x="96.25"/>
       <use xlink:href="#TimesNewRomanPSMT-30" x="124.033203"/>
       <use xlink:href="#TimesNewRomanPSMT-30" x="174.033203"/>
      </g>
     </g>
    </g>
    <g id="xtick_13">
     <g id="line2d_13">
      <path d="M 380.979652 216.203692 
L 380.979652 30.24 
" clip-path="url(#p30fe57f2bc)" style="fill: none; stroke: #cccccc; stroke-width: 0.8; stroke-linecap: round"/>
     </g>
     <g id="text_13">
      <!-- 12:00 -->
      <g style="fill: #262626" transform="translate(371.447797 254.728501) rotate(-45) scale(0.15 -0.15)">
       <use xlink:href="#TimesNewRomanPSMT-31"/>
       <use xlink:href="#TimesNewRomanPSMT-32" x="50"/>
       <use xlink:href="#TimesNewRomanPSMT-3a" x="100"/>
       <use xlink:href="#TimesNewRomanPSMT-30" x="127.783203"/>
       <use xlink:href="#TimesNewRomanPSMT-30" x="177.783203"/>
      </g>
     </g>
    </g>
    <g id="xtick_14">
     <g id="line2d_14">
      <path d="M 406.891289 216.203692 
L 406.891289 30.24 
" clip-path="url(#p30fe57f2bc)" style="fill: none; stroke: #cccccc; stroke-width: 0.8; stroke-linecap: round"/>
     </g>
     <g id="text_14">
      <!-- 13:00 -->
      <g style="fill: #262626" transform="translate(397.359435 254.728501) rotate(-45) scale(0.15 -0.15)">
       <use xlink:href="#TimesNewRomanPSMT-31"/>
       <use xlink:href="#TimesNewRomanPSMT-33" x="50"/>
       <use xlink:href="#TimesNewRomanPSMT-3a" x="100"/>
       <use xlink:href="#TimesNewRomanPSMT-30" x="127.783203"/>
       <use xlink:href="#TimesNewRomanPSMT-30" x="177.783203"/>
      </g>
     </g>
    </g>
    <g id="xtick_15">
     <g id="line2d_15">
      <path d="M 432.802927 216.203692 
L 432.802927 30.24 
" clip-path="url(#p30fe57f2bc)" style="fill: none; stroke: #cccccc; stroke-width: 0.8; stroke-linecap: round"/>
     </g>
     <g id="text_15">
      <!-- 14:00 -->
      <g style="fill: #262626" transform="translate(423.271072 254.728501) rotate(-45) scale(0.15 -0.15)">
       <use xlink:href="#TimesNewRomanPSMT-31"/>
       <use xlink:href="#TimesNewRomanPSMT-34" x="50"/>
       <use xlink:href="#TimesNewRomanPSMT-3a" x="100"/>
       <use xlink:href="#TimesNewRomanPSMT-30" x="127.783203"/>
       <use xlink:href="#TimesNewRomanPSMT-30" x="177.783203"/>
      </g>
     </g>
    </g>
    <g id="xtick_16">
     <g id="line2d_16">
      <path d="M 458.714564 216.203692 
L 458.714564 30.24 
" clip-path="url(#p30fe57f2bc)" style="fill: none; stroke: #cccccc; stroke-width: 0.8; stroke-linecap: round"/>
     </g>
     <g id="text_16">
      <!-- 15:00 -->
      <g style="fill: #262626" transform="translate(449.18271 254.728501) rotate(-45) scale(0.15 -0.15)">
       <use xlink:href="#TimesNewRomanPSMT-31"/>
       <use xlink:href="#TimesNewRomanPSMT-35" x="50"/>
       <use xlink:href="#TimesNewRomanPSMT-3a" x="100"/>
       <use xlink:href="#TimesNewRomanPSMT-30" x="127.783203"/>
       <use xlink:href="#TimesNewRomanPSMT-30" x="177.783203"/>
      </g>
     </g>
    </g>
    <g id="xtick_17">
     <g id="line2d_17">
      <path d="M 484.626202 216.203692 
L 484.626202 30.24 
" clip-path="url(#p30fe57f2bc)" style="fill: none; stroke: #cccccc; stroke-width: 0.8; stroke-linecap: round"/>
     </g>
     <g id="text_17">
      <!-- 16:00 -->
      <g style="fill: #262626" transform="translate(475.094347 254.728501) rotate(-45) scale(0.15 -0.15)">
       <use xlink:href="#TimesNewRomanPSMT-31"/>
       <use xlink:href="#TimesNewRomanPSMT-36" x="50"/>
       <use xlink:href="#TimesNewRomanPSMT-3a" x="100"/>
       <use xlink:href="#TimesNewRomanPSMT-30" x="127.783203"/>
       <use xlink:href="#TimesNewRomanPSMT-30" x="177.783203"/>
      </g>
     </g>
    </g>
    <g id="xtick_18">
     <g id="line2d_18">
      <path d="M 510.53784 216.203692 
L 510.53784 30.24 
" clip-path="url(#p30fe57f2bc)" style="fill: none; stroke: #cccccc; stroke-width: 0.8; stroke-linecap: round"/>
     </g>
     <g id="text_18">
      <!-- 17:00 -->
      <g style="fill: #262626" transform="translate(501.005985 254.728501) rotate(-45) scale(0.15 -0.15)">
       <use xlink:href="#TimesNewRomanPSMT-31"/>
       <use xlink:href="#TimesNewRomanPSMT-37" x="50"/>
       <use xlink:href="#TimesNewRomanPSMT-3a" x="100"/>
       <use xlink:href="#TimesNewRomanPSMT-30" x="127.783203"/>
       <use xlink:href="#TimesNewRomanPSMT-30" x="177.783203"/>
      </g>
     </g>
    </g>
    <g id="xtick_19">
     <g id="line2d_19">
      <path d="M 536.449477 216.203692 
L 536.449477 30.24 
" clip-path="url(#p30fe57f2bc)" style="fill: none; stroke: #cccccc; stroke-width: 0.8; stroke-linecap: round"/>
     </g>
     <g id="text_19">
      <!-- 18:00 -->
      <g style="fill: #262626" transform="translate(526.917623 254.728501) rotate(-45) scale(0.15 -0.15)">
       <use xlink:href="#TimesNewRomanPSMT-31"/>
       <use xlink:href="#TimesNewRomanPSMT-38" x="50"/>
       <use xlink:href="#TimesNewRomanPSMT-3a" x="100"/>
       <use xlink:href="#TimesNewRomanPSMT-30" x="127.783203"/>
       <use xlink:href="#TimesNewRomanPSMT-30" x="177.783203"/>
      </g>
     </g>
    </g>
    <g id="xtick_20">
     <g id="line2d_20">
      <path d="M 562.361115 216.203692 
L 562.361115 30.24 
" clip-path="url(#p30fe57f2bc)" style="fill: none; stroke: #cccccc; stroke-width: 0.8; stroke-linecap: round"/>
     </g>
     <g id="text_20">
      <!-- 19:00 -->
      <g style="fill: #262626" transform="translate(552.82926 254.728501) rotate(-45) scale(0.15 -0.15)">
       <use xlink:href="#TimesNewRomanPSMT-31"/>
       <use xlink:href="#TimesNewRomanPSMT-39" x="50"/>
       <use xlink:href="#TimesNewRomanPSMT-3a" x="100"/>
       <use xlink:href="#TimesNewRomanPSMT-30" x="127.783203"/>
       <use xlink:href="#TimesNewRomanPSMT-30" x="177.783203"/>
      </g>
     </g>
    </g>
    <g id="xtick_21">
     <g id="line2d_21">
      <path d="M 588.272753 216.203692 
L 588.272753 30.24 
" clip-path="url(#p30fe57f2bc)" style="fill: none; stroke: #cccccc; stroke-width: 0.8; stroke-linecap: round"/>
     </g>
     <g id="text_21">
      <!-- 20:00 -->
      <g style="fill: #262626" transform="translate(578.740898 254.728501) rotate(-45) scale(0.15 -0.15)">
       <use xlink:href="#TimesNewRomanPSMT-32"/>
       <use xlink:href="#TimesNewRomanPSMT-30" x="50"/>
       <use xlink:href="#TimesNewRomanPSMT-3a" x="100"/>
       <use xlink:href="#TimesNewRomanPSMT-30" x="127.783203"/>
       <use xlink:href="#TimesNewRomanPSMT-30" x="177.783203"/>
      </g>
     </g>
    </g>
    <g id="xtick_22">
     <g id="line2d_22">
      <path d="M 614.18439 216.203692 
L 614.18439 30.24 
" clip-path="url(#p30fe57f2bc)" style="fill: none; stroke: #cccccc; stroke-width: 0.8; stroke-linecap: round"/>
     </g>
     <g id="text_22">
      <!-- 21:00 -->
      <g style="fill: #262626" transform="translate(604.652536 254.728501) rotate(-45) scale(0.15 -0.15)">
       <use xlink:href="#TimesNewRomanPSMT-32"/>
       <use xlink:href="#TimesNewRomanPSMT-31" x="50"/>
       <use xlink:href="#TimesNewRomanPSMT-3a" x="100"/>
       <use xlink:href="#TimesNewRomanPSMT-30" x="127.783203"/>
       <use xlink:href="#TimesNewRomanPSMT-30" x="177.783203"/>
      </g>
     </g>
    </g>
    <g id="xtick_23">
     <g id="line2d_23">
      <path d="M 640.096028 216.203692 
L 640.096028 30.24 
" clip-path="url(#p30fe57f2bc)" style="fill: none; stroke: #cccccc; stroke-width: 0.8; stroke-linecap: round"/>
     </g>
     <g id="text_23">
      <!-- 22:00 -->
      <g style="fill: #262626" transform="translate(630.564173 254.728501) rotate(-45) scale(0.15 -0.15)">
       <use xlink:href="#TimesNewRomanPSMT-32"/>
       <use xlink:href="#TimesNewRomanPSMT-32" x="50"/>
       <use xlink:href="#TimesNewRomanPSMT-3a" x="100"/>
       <use xlink:href="#TimesNewRomanPSMT-30" x="127.783203"/>
       <use xlink:href="#TimesNewRomanPSMT-30" x="177.783203"/>
      </g>
     </g>
    </g>
    <g id="xtick_24">
     <g id="line2d_24">
      <path d="M 666.007666 216.203692 
L 666.007666 30.24 
" clip-path="url(#p30fe57f2bc)" style="fill: none; stroke: #cccccc; stroke-width: 0.8; stroke-linecap: round"/>
     </g>
     <g id="text_24">
      <!-- 23:00 -->
      <g style="fill: #262626" transform="translate(656.475811 254.728501) rotate(-45) scale(0.15 -0.15)">
       <use xlink:href="#TimesNewRomanPSMT-32"/>
       <use xlink:href="#TimesNewRomanPSMT-33" x="50"/>
       <use xlink:href="#TimesNewRomanPSMT-3a" x="100"/>
       <use xlink:href="#TimesNewRomanPSMT-30" x="127.783203"/>
       <use xlink:href="#TimesNewRomanPSMT-30" x="177.783203"/>
      </g>
     </g>
    </g>
   </g>
   <g id="matplotlib.axis_2">
    <g id="ytick_1">
     <g id="line2d_25">
      <path d="M 70.04 207.750797 
L 689.76 207.750797 
" clip-path="url(#p30fe57f2bc)" style="fill: none; stroke: #cccccc; stroke-width: 0.8; stroke-linecap: round"/>
     </g>
     <g id="text_25">
      <!-- 0 -->
      <g style="fill: #262626" transform="translate(59.831406 210.042984) rotate(-90) scale(0.15 -0.15)">
       <use xlink:href="#TimesNewRomanPSMT-30"/>
      </g>
     </g>
    </g>
    <g id="ytick_2">
     <g id="line2d_26">
      <path d="M 70.04 93.862307 
L 689.76 93.862307 
" clip-path="url(#p30fe57f2bc)" style="fill: none; stroke: #cccccc; stroke-width: 0.8; stroke-linecap: round"/>
     </g>
     <g id="text_26">
      <!-- 5000 -->
      <g style="fill: #262626" transform="translate(59.831406 118.654494) rotate(-90) scale(0.15 -0.15)">
       <use xlink:href="#TimesNewRomanPSMT-35"/>
       <use xlink:href="#TimesNewRomanPSMT-30" x="50"/>
       <use xlink:href="#TimesNewRomanPSMT-30" x="100"/>
       <use xlink:href="#TimesNewRomanPSMT-30" x="150"/>
      </g>
     </g>
    </g>
    <g id="text_27">
     <!-- Power (W) -->
     <g style="fill: #262626" transform="translate(42.207188 156.334346) rotate(-90) scale(0.15 -0.15)">
      <defs>
       <path id="TimesNewRomanPSMT-50" d="M 1313 1984 
L 1313 750 
Q 1313 350 1400 253 
Q 1519 116 1759 116 
L 1922 116 
L 1922 0 
L 106 0 
L 106 116 
L 266 116 
Q 534 116 650 291 
Q 713 388 713 750 
L 713 3488 
Q 713 3888 628 3984 
Q 506 4122 266 4122 
L 106 4122 
L 106 4238 
L 1659 4238 
Q 2228 4238 2556 4120 
Q 2884 4003 3109 3725 
Q 3334 3447 3334 3066 
Q 3334 2547 2992 2222 
Q 2650 1897 2025 1897 
Q 1872 1897 1694 1919 
Q 1516 1941 1313 1984 
z
M 1313 2163 
Q 1478 2131 1606 2115 
Q 1734 2100 1825 2100 
Q 2150 2100 2386 2351 
Q 2622 2603 2622 3003 
Q 2622 3278 2509 3514 
Q 2397 3750 2190 3867 
Q 1984 3984 1722 3984 
Q 1563 3984 1313 3925 
L 1313 2163 
z
" transform="scale(0.015625)"/>
       <path id="TimesNewRomanPSMT-6f" d="M 1600 2947 
Q 2250 2947 2644 2453 
Q 2978 2031 2978 1484 
Q 2978 1100 2793 706 
Q 2609 313 2286 112 
Q 1963 -88 1566 -88 
Q 919 -88 538 428 
Q 216 863 216 1403 
Q 216 1797 411 2186 
Q 606 2575 925 2761 
Q 1244 2947 1600 2947 
z
M 1503 2744 
Q 1338 2744 1170 2645 
Q 1003 2547 900 2300 
Q 797 2053 797 1666 
Q 797 1041 1045 587 
Q 1294 134 1700 134 
Q 2003 134 2200 384 
Q 2397 634 2397 1244 
Q 2397 2006 2069 2444 
Q 1847 2744 1503 2744 
z
" transform="scale(0.015625)"/>
       <path id="TimesNewRomanPSMT-77" d="M 41 2863 
L 1241 2863 
L 1241 2747 
Q 1075 2734 1023 2687 
Q 972 2641 972 2553 
Q 972 2456 1025 2319 
L 1638 672 
L 2253 2013 
L 2091 2434 
Q 2016 2622 1894 2694 
Q 1825 2738 1638 2747 
L 1638 2863 
L 3000 2863 
L 3000 2747 
Q 2775 2738 2681 2666 
Q 2619 2616 2619 2506 
Q 2619 2444 2644 2378 
L 3294 734 
L 3897 2319 
Q 3959 2488 3959 2588 
Q 3959 2647 3898 2694 
Q 3838 2741 3659 2747 
L 3659 2863 
L 4563 2863 
L 4563 2747 
Q 4291 2706 4163 2378 
L 3206 -88 
L 3078 -88 
L 2363 1741 
L 1528 -88 
L 1413 -88 
L 494 2319 
Q 403 2547 315 2626 
Q 228 2706 41 2747 
L 41 2863 
z
" transform="scale(0.015625)"/>
       <path id="TimesNewRomanPSMT-65" d="M 681 1784 
Q 678 1147 991 784 
Q 1303 422 1725 422 
Q 2006 422 2214 576 
Q 2422 731 2563 1106 
L 2659 1044 
Q 2594 616 2278 264 
Q 1963 -88 1488 -88 
Q 972 -88 605 314 
Q 238 716 238 1394 
Q 238 2128 614 2539 
Q 991 2950 1559 2950 
Q 2041 2950 2350 2633 
Q 2659 2316 2659 1784 
L 681 1784 
z
M 681 1966 
L 2006 1966 
Q 1991 2241 1941 2353 
Q 1863 2528 1708 2628 
Q 1553 2728 1384 2728 
Q 1125 2728 920 2526 
Q 716 2325 681 1966 
z
" transform="scale(0.015625)"/>
       <path id="TimesNewRomanPSMT-72" d="M 1038 2947 
L 1038 2303 
Q 1397 2947 1775 2947 
Q 1947 2947 2059 2842 
Q 2172 2738 2172 2600 
Q 2172 2478 2090 2393 
Q 2009 2309 1897 2309 
Q 1788 2309 1652 2417 
Q 1516 2525 1450 2525 
Q 1394 2525 1328 2463 
Q 1188 2334 1038 2041 
L 1038 669 
Q 1038 431 1097 309 
Q 1138 225 1241 169 
Q 1344 113 1538 113 
L 1538 0 
L 72 0 
L 72 113 
Q 291 113 397 181 
Q 475 231 506 341 
Q 522 394 522 644 
L 522 1753 
Q 522 2253 501 2348 
Q 481 2444 426 2487 
Q 372 2531 291 2531 
Q 194 2531 72 2484 
L 41 2597 
L 906 2947 
L 1038 2947 
z
" transform="scale(0.015625)"/>
       <path id="TimesNewRomanPSMT-20" transform="scale(0.015625)"/>
       <path id="TimesNewRomanPSMT-28" d="M 1988 -1253 
L 1988 -1369 
Q 1516 -1131 1200 -813 
Q 750 -359 506 256 
Q 263 872 263 1534 
Q 263 2503 741 3301 
Q 1219 4100 1988 4444 
L 1988 4313 
Q 1603 4100 1356 3731 
Q 1109 3363 987 2797 
Q 866 2231 866 1616 
Q 866 947 969 400 
Q 1050 -31 1165 -292 
Q 1281 -553 1476 -793 
Q 1672 -1034 1988 -1253 
z
" transform="scale(0.015625)"/>
       <path id="TimesNewRomanPSMT-57" d="M 5991 4238 
L 5991 4122 
Q 5825 4122 5722 4062 
Q 5619 4003 5525 3841 
Q 5463 3731 5328 3319 
L 4147 -97 
L 4022 -97 
L 3056 2613 
L 2097 -97 
L 1984 -97 
L 725 3422 
Q 584 3816 547 3888 
Q 484 4006 376 4064 
Q 269 4122 84 4122 
L 84 4238 
L 1653 4238 
L 1653 4122 
L 1578 4122 
Q 1413 4122 1325 4047 
Q 1238 3972 1238 3866 
Q 1238 3756 1375 3363 
L 2209 984 
L 2913 3006 
L 2788 3363 
L 2688 3647 
Q 2622 3803 2541 3922 
Q 2500 3981 2441 4022 
Q 2363 4078 2284 4103 
Q 2225 4122 2097 4122 
L 2097 4238 
L 3747 4238 
L 3747 4122 
L 3634 4122 
Q 3459 4122 3378 4047 
Q 3297 3972 3297 3844 
Q 3297 3684 3438 3288 
L 4250 984 
L 5056 3319 
Q 5194 3706 5194 3856 
Q 5194 3928 5148 3990 
Q 5103 4053 5034 4078 
Q 4916 4122 4725 4122 
L 4725 4238 
L 5991 4238 
z
" transform="scale(0.015625)"/>
       <path id="TimesNewRomanPSMT-29" d="M 144 4313 
L 144 4444 
Q 619 4209 934 3891 
Q 1381 3434 1625 2820 
Q 1869 2206 1869 1541 
Q 1869 572 1392 -226 
Q 916 -1025 144 -1369 
L 144 -1253 
Q 528 -1038 776 -670 
Q 1025 -303 1145 264 
Q 1266 831 1266 1447 
Q 1266 2113 1163 2663 
Q 1084 3094 967 3353 
Q 850 3613 656 3853 
Q 463 4094 144 4313 
z
" transform="scale(0.015625)"/>
      </defs>
      <use xlink:href="#TimesNewRomanPSMT-50"/>
      <use xlink:href="#TimesNewRomanPSMT-6f" x="55.615234"/>
      <use xlink:href="#TimesNewRomanPSMT-77" x="105.615234"/>
      <use xlink:href="#TimesNewRomanPSMT-65" x="177.832031"/>
      <use xlink:href="#TimesNewRomanPSMT-72" x="222.216797"/>
      <use xlink:href="#TimesNewRomanPSMT-20" x="255.517578"/>
      <use xlink:href="#TimesNewRomanPSMT-28" x="280.517578"/>
      <use xlink:href="#TimesNewRomanPSMT-57" x="313.818359"/>
      <use xlink:href="#TimesNewRomanPSMT-29" x="408.203125"/>
     </g>
    </g>
   </g>
   <g id="line2d_27">
    <path d="M 70.04 207.750797 
L 275.173798 207.750797 
L 277.333101 60.501367 
L 279.492404 61.452063 
L 281.651707 58.619091 
L 283.81101 52.643051 
L 285.970314 50.636512 
L 288.129617 49.926474 
L 290.28892 45.940392 
L 292.448223 192.862745 
L 294.607526 80.421843 
L 296.766829 89.774457 
L 298.926132 90.753014 
L 301.085436 102.014521 
L 303.244739 125.985999 
L 305.404042 135.043222 
L 307.563345 139.723025 
L 309.722648 143.144769 
L 311.881951 159.550924 
L 314.041254 163.578072 
L 316.200557 161.670988 
L 318.359861 156.627209 
L 320.519164 161.952656 
L 322.678467 164.707963 
L 324.83777 159.510614 
L 326.997073 163.907569 
L 329.156376 191.41994 
L 331.315679 192.403494 
L 333.474983 205.772199 
L 335.634286 202.649396 
L 337.793589 197.582817 
L 339.952892 193.170115 
L 342.112195 190.912482 
L 344.271498 194.759036 
L 346.430801 187.524513 
L 348.590105 201.510132 
L 350.749408 201.53708 
L 352.908711 207.750797 
L 689.76 207.750797 
L 689.76 207.750797 
" clip-path="url(#p30fe57f2bc)" style="fill: none; stroke-dasharray: 14.8,6.4; stroke-dashoffset: 0; stroke: #ff0000; stroke-width: 4"/>
   </g>
   <g id="line2d_28">
    <path d="M 70.04 207.750797 
L 275.173798 207.750797 
L 277.333101 54.113133 
L 279.492404 53.698654 
L 281.651707 54.823964 
L 283.81101 58.848001 
L 285.970314 60.141853 
L 288.129617 54.544088 
L 290.28892 46.057775 
L 292.448223 74.758917 
L 294.607526 70.073275 
L 296.766829 93.405003 
L 298.926132 103.454841 
L 301.085436 101.540817 
L 303.244739 124.303211 
L 307.563345 137.686202 
L 309.722648 142.228388 
L 311.881951 157.23897 
L 314.041254 162.676707 
L 316.200557 165.17847 
L 318.359861 155.27594 
L 320.519164 160.974815 
L 326.997073 161.261471 
L 329.156376 192.741235 
L 331.315679 192.763705 
L 333.474983 205.660367 
L 335.634286 203.011093 
L 337.793589 197.46597 
L 339.952892 192.687136 
L 342.112195 192.05196 
L 344.271498 195.597684 
L 346.430801 186.400235 
L 348.590105 201.221848 
L 350.749408 201.206999 
L 352.908711 207.750797 
L 689.76 207.750797 
L 689.76 207.750797 
" clip-path="url(#p30fe57f2bc)" style="fill: none; stroke: #000000; stroke-opacity: 0.6; stroke-width: 1.5; stroke-linecap: round"/>
   </g>
   <g id="line2d_29">
    <path d="M 70.04 207.750797 
L 275.173798 207.750797 
L 277.333101 73.192112 
L 279.492404 67.327981 
L 281.651707 48.529658 
L 283.81101 55.138673 
L 285.970314 67.517275 
L 288.129617 42.164539 
L 290.28892 42.533406 
L 292.448223 63.262166 
L 294.607526 69.413509 
L 296.766829 87.813612 
L 298.926132 97.932454 
L 303.244739 123.655892 
L 305.404042 125.823103 
L 307.563345 143.557033 
L 309.722648 147.408758 
L 311.881951 157.201565 
L 314.041254 160.799858 
L 316.200557 162.010292 
L 318.359861 141.145172 
L 320.519164 165.345506 
L 322.678467 171.526704 
L 324.83777 162.623763 
L 326.997073 161.896877 
L 329.156376 205.570791 
L 331.315679 204.942049 
L 333.474983 207.188206 
L 337.793589 205.152275 
L 339.952892 203.909109 
L 342.112195 203.517107 
L 344.271498 204.044017 
L 346.430801 202.58463 
L 348.590105 205.561404 
L 350.749408 205.603419 
L 352.908711 187.094003 
L 355.068014 207.750797 
L 689.76 207.750797 
L 689.76 207.750797 
" clip-path="url(#p30fe57f2bc)" style="fill: none; stroke: #ffa500; stroke-opacity: 0.6; stroke-width: 1.5; stroke-linecap: round"/>
   </g>
   <g id="line2d_30">
    <path d="M 70.04 207.750797 
L 275.173798 207.750797 
L 277.333101 60.501367 
L 279.492404 61.452063 
L 281.651707 58.619091 
L 283.81101 52.643051 
L 285.970314 50.636512 
L 288.129617 49.926474 
L 290.28892 45.940392 
L 292.448223 192.862745 
L 294.607526 80.421843 
L 296.766829 89.774457 
L 298.926132 90.753014 
L 301.085436 102.014521 
L 303.244739 125.985999 
L 305.404042 135.043222 
L 307.563345 139.723025 
L 309.722648 143.144769 
L 311.881951 159.550924 
L 314.041254 163.578072 
L 316.200557 161.670988 
L 318.359861 156.627209 
L 320.519164 161.952656 
L 322.678467 164.707963 
L 324.83777 159.510614 
L 326.997073 163.907569 
L 329.156376 191.41994 
L 331.315679 192.403494 
L 333.474983 205.772199 
L 335.634286 202.649396 
L 337.793589 197.582817 
L 339.952892 193.170115 
L 342.112195 190.912482 
L 344.271498 194.759036 
L 346.430801 187.524513 
L 348.590105 201.510132 
L 350.749408 201.53708 
L 352.908711 207.750797 
L 689.76 207.750797 
L 689.76 207.750797 
" clip-path="url(#p30fe57f2bc)" style="fill: none; stroke-dasharray: 14.8,6.4; stroke-dashoffset: 0; stroke: #ff0000; stroke-width: 4"/>
   </g>
   <g id="line2d_31">
    <path d="M 70.04 207.750797 
L 249.26216 207.750797 
L 251.421463 193.409147 
L 253.580767 192.427508 
L 255.74007 193.194989 
L 257.899373 192.023075 
L 262.217979 191.52433 
L 264.377282 191.745849 
L 266.536585 190.314275 
L 268.695889 191.753845 
L 273.014495 190.640377 
L 275.173798 190.416328 
L 277.333101 75.256587 
L 279.492404 67.773622 
L 281.651707 82.714383 
L 283.81101 50.342074 
L 285.970314 43.488455 
L 288.129617 48.918913 
L 290.28892 39.095524 
L 292.448223 75.877238 
L 294.607526 69.210232 
L 296.766829 93.880787 
L 298.926132 102.104443 
L 301.085436 109.794714 
L 303.244739 132.09286 
L 305.404042 140.557227 
L 307.563345 154.106256 
L 309.722648 152.709314 
L 311.881951 161.084329 
L 314.041254 160.329293 
L 316.200557 174.936058 
L 318.359861 159.084486 
L 320.519164 179.40657 
L 322.678467 161.830638 
L 324.83777 171.557177 
L 326.997073 176.291446 
L 329.156376 190.053612 
L 331.315679 191.735946 
L 333.474983 205.738365 
L 335.634286 202.638813 
L 339.952892 192.792169 
L 342.112195 191.107008 
L 344.271498 194.089401 
L 346.430801 187.116653 
L 348.590105 201.521694 
L 350.749408 201.610482 
L 352.908711 207.750797 
L 689.76 207.750797 
L 689.76 207.750797 
" clip-path="url(#p30fe57f2bc)" style="fill: none; stroke: #000000; stroke-opacity: 0.6; stroke-width: 1.5; stroke-linecap: round"/>
   </g>
   <g id="line2d_32">
    <path d="M 70.04 207.750797 
L 275.173798 207.750797 
L 277.333101 65.703794 
L 281.651707 41.770532 
L 283.81101 39.825306 
L 285.970314 40.833949 
L 288.129617 63.183832 
L 290.28892 70.880965 
L 292.448223 85.692857 
L 294.607526 70.065973 
L 296.766829 92.955662 
L 298.926132 90.880582 
L 301.085436 108.555916 
L 303.244739 116.105882 
L 305.404042 130.810985 
L 307.563345 130.242844 
L 309.722648 142.497993 
L 311.881951 159.576315 
L 314.041254 164.8858 
L 316.200557 163.965845 
L 318.359861 161.078546 
L 320.519164 163.737069 
L 322.678467 163.412631 
L 324.83777 153.486735 
L 326.997073 164.832321 
L 329.156376 189.694029 
L 331.315679 192.305385 
L 333.474983 205.928474 
L 337.793589 197.690026 
L 339.952892 195.930202 
L 342.112195 189.32741 
L 344.271498 195.007521 
L 346.430801 186.106295 
L 348.590105 201.007874 
L 350.749408 201.693482 
L 352.908711 207.750797 
L 689.76 207.750797 
L 689.76 207.750797 
" clip-path="url(#p30fe57f2bc)" style="fill: none; stroke: #ffa500; stroke-opacity: 0.6; stroke-width: 1.5; stroke-linecap: round"/>
   </g>
   <g id="line2d_33">
    <path d="M 70.04 207.750797 
L 275.173798 207.750797 
L 277.333101 60.501367 
L 279.492404 61.452063 
L 281.651707 58.619091 
L 283.81101 52.643051 
L 285.970314 50.636512 
L 288.129617 49.926474 
L 290.28892 45.940392 
L 292.448223 192.862745 
L 294.607526 80.421843 
L 296.766829 89.774457 
L 298.926132 90.753014 
L 301.085436 102.014521 
L 303.244739 125.985999 
L 305.404042 135.043222 
L 307.563345 139.723025 
L 309.722648 143.144769 
L 311.881951 159.550924 
L 314.041254 163.578072 
L 316.200557 161.670988 
L 318.359861 156.627209 
L 320.519164 161.952656 
L 322.678467 164.707963 
L 324.83777 159.510614 
L 326.997073 163.907569 
L 329.156376 191.41994 
L 331.315679 192.403494 
L 333.474983 205.772199 
L 335.634286 202.649396 
L 337.793589 197.582817 
L 339.952892 193.170115 
L 342.112195 190.912482 
L 344.271498 194.759036 
L 346.430801 187.524513 
L 348.590105 201.510132 
L 350.749408 201.53708 
L 352.908711 207.750797 
L 689.76 207.750797 
L 689.76 207.750797 
" clip-path="url(#p30fe57f2bc)" style="fill: none; stroke-dasharray: 14.8,6.4; stroke-dashoffset: 0; stroke: #ff0000; stroke-width: 4"/>
   </g>
   <g id="line2d_34">
    <path d="M 70.04 207.750797 
L 275.173798 207.750797 
L 277.333101 55.49231 
L 279.492404 68.136466 
L 281.651707 58.413141 
L 283.81101 62.525617 
L 285.970314 50.500056 
L 288.129617 53.202537 
L 290.28892 43.81093 
L 292.448223 70.613704 
L 294.607526 90.263357 
L 298.926132 90.641121 
L 301.085436 103.077832 
L 303.244739 122.159429 
L 307.563345 146.251441 
L 309.722648 145.749738 
L 311.881951 157.708529 
L 314.041254 167.117362 
L 316.200557 157.593535 
L 318.359861 154.981264 
L 320.519164 162.621317 
L 322.678467 164.506535 
L 324.83777 161.068591 
L 326.997073 161.621729 
L 329.156376 191.090154 
L 331.315679 193.292102 
L 333.474983 205.847201 
L 335.634286 202.612585 
L 337.793589 197.357677 
L 339.952892 194.372004 
L 342.112195 191.072908 
L 344.271498 196.096007 
L 346.430801 189.250378 
L 348.590105 201.21597 
L 350.749408 201.611888 
L 352.908711 207.750797 
L 689.76 207.750797 
L 689.76 207.750797 
" clip-path="url(#p30fe57f2bc)" style="fill: none; stroke: #000000; stroke-opacity: 0.6; stroke-width: 1.5; stroke-linecap: round"/>
   </g>
   <g id="line2d_35">
    <path d="M 70.04 207.750797 
L 275.173798 207.750797 
L 277.333101 49.704423 
L 279.492404 54.670191 
L 281.651707 55.64853 
L 283.81101 52.819833 
L 285.970314 40.09989 
L 288.129617 59.764895 
L 290.28892 42.696862 
L 292.448223 71.577215 
L 294.607526 94.163162 
L 296.766829 88.333242 
L 298.926132 94.186789 
L 301.085436 130.524055 
L 303.244739 125.598452 
L 305.404042 147.836788 
L 307.563345 139.514309 
L 309.722648 136.27169 
L 311.881951 162.092904 
L 314.041254 167.05436 
L 318.359861 148.535536 
L 320.519164 169.789004 
L 322.678467 150.266387 
L 324.83777 155.037046 
L 326.997073 165.208568 
L 329.156376 193.425944 
L 331.315679 191.022879 
L 333.474983 205.447189 
L 337.793589 199.103518 
L 339.952892 194.645727 
L 342.112195 188.569627 
L 344.271498 195.534907 
L 346.430801 185.387763 
L 348.590105 201.971 
L 350.749408 201.576803 
L 352.908711 207.750797 
L 689.76 207.750797 
L 689.76 207.750797 
" clip-path="url(#p30fe57f2bc)" style="fill: none; stroke: #ffa500; stroke-opacity: 0.6; stroke-width: 1.5; stroke-linecap: round"/>
   </g>
   <g id="line2d_36">
    <path d="M 70.04 207.750797 
L 275.173798 207.750797 
L 277.333101 60.501367 
L 279.492404 61.452063 
L 281.651707 58.619091 
L 283.81101 52.643051 
L 285.970314 50.636512 
L 288.129617 49.926474 
L 290.28892 45.940392 
L 292.448223 192.862745 
L 294.607526 80.421843 
L 296.766829 89.774457 
L 298.926132 90.753014 
L 301.085436 102.014521 
L 303.244739 125.985999 
L 305.404042 135.043222 
L 307.563345 139.723025 
L 309.722648 143.144769 
L 311.881951 159.550924 
L 314.041254 163.578072 
L 316.200557 161.670988 
L 318.359861 156.627209 
L 320.519164 161.952656 
L 322.678467 164.707963 
L 324.83777 159.510614 
L 326.997073 163.907569 
L 329.156376 191.41994 
L 331.315679 192.403494 
L 333.474983 205.772199 
L 335.634286 202.649396 
L 337.793589 197.582817 
L 339.952892 193.170115 
L 342.112195 190.912482 
L 344.271498 194.759036 
L 346.430801 187.524513 
L 348.590105 201.510132 
L 350.749408 201.53708 
L 352.908711 207.750797 
L 689.76 207.750797 
L 689.76 207.750797 
" clip-path="url(#p30fe57f2bc)" style="fill: none; stroke-dasharray: 14.8,6.4; stroke-dashoffset: 0; stroke: #ff0000; stroke-width: 4"/>
   </g>
   <g id="line2d_37">
    <path d="M 70.04 207.750797 
L 197.438885 207.750797 
L 199.598188 189.169334 
L 201.757491 187.954073 
L 203.916794 185.898684 
L 206.076098 180.844401 
L 208.235401 175.176606 
L 210.394704 173.88011 
L 212.554007 168.187895 
L 214.71331 169.557789 
L 216.872613 164.039375 
L 219.031916 155.043749 
L 221.19122 160.083289 
L 223.350523 152.116498 
L 225.509826 199.789862 
L 227.669129 194.120677 
L 229.828432 185.530528 
L 231.987735 178.150995 
L 234.147038 177.382204 
L 236.306341 163.792471 
L 238.465645 163.582503 
L 240.624948 198.344434 
L 242.784251 200.279783 
L 244.943554 160.108563 
L 247.102857 137.098776 
L 249.26216 148.410938 
L 251.421463 96.860002 
L 253.580767 100.150231 
L 255.74007 84.94441 
L 257.899373 94.125139 
L 260.058676 96.69925 
L 262.217979 78.745326 
L 264.377282 95.351604 
L 266.536585 75.622103 
L 268.695889 80.150521 
L 270.855192 76.714085 
L 273.014495 68.879524 
L 275.173798 82.864763 
L 277.333101 61.237446 
L 279.492404 66.278659 
L 281.651707 68.312057 
L 283.81101 42.932528 
L 285.970314 42.808498 
L 288.129617 45.823119 
L 290.28892 60.399974 
L 292.448223 85.582804 
L 294.607526 78.558725 
L 296.766829 108.052564 
L 298.926132 96.147913 
L 301.085436 106.766438 
L 303.244739 143.878618 
L 305.404042 150.844986 
L 307.563345 152.00795 
L 309.722648 158.505416 
L 311.881951 176.34325 
L 314.041254 177.545362 
L 316.200557 172.89846 
L 318.359861 169.441349 
L 320.519164 176.978774 
L 322.678467 176.878339 
L 324.83777 171.661453 
L 326.997073 179.336326 
L 329.156376 192.01811 
L 331.315679 192.879761 
L 333.474983 205.834274 
L 335.634286 202.064821 
L 339.952892 192.056638 
L 342.112195 190.439374 
L 344.271498 194.171546 
L 346.430801 185.870801 
L 348.590105 201.135474 
L 350.749408 201.718939 
L 352.908711 207.750797 
L 689.76 207.750797 
L 689.76 207.750797 
" clip-path="url(#p30fe57f2bc)" style="fill: none; stroke: #000000; stroke-opacity: 0.6; stroke-width: 1.5; stroke-linecap: round"/>
   </g>
   <g id="line2d_38">
    <path d="M 70.04 207.750797 
L 275.173798 207.750797 
L 277.333101 73.502387 
L 279.492404 49.156673 
L 281.651707 54.453749 
L 283.81101 46.096199 
L 285.970314 44.818469 
L 288.129617 70.29664 
L 290.28892 46.971249 
L 292.448223 96.306671 
L 294.607526 106.252026 
L 296.766829 93.076082 
L 298.926132 120.615556 
L 301.085436 110.139808 
L 303.244739 107.6061 
L 305.404042 138.641824 
L 307.563345 142.602254 
L 309.722648 154.749633 
L 311.881951 160.506417 
L 314.041254 161.582753 
L 316.200557 173.78805 
L 318.359861 151.584856 
L 320.519164 164.274412 
L 324.83777 162.311189 
L 326.997073 168.103192 
L 329.156376 192.233917 
L 331.315679 191.724047 
L 333.474983 205.865456 
L 335.634286 202.570078 
L 337.793589 197.348631 
L 339.952892 195.245389 
L 342.112195 189.993592 
L 344.271498 194.448219 
L 346.430801 188.609031 
L 348.590105 200.521887 
L 350.749408 200.921116 
L 352.908711 207.750797 
L 689.76 207.750797 
L 689.76 207.750797 
" clip-path="url(#p30fe57f2bc)" style="fill: none; stroke: #ffa500; stroke-opacity: 0.6; stroke-width: 1.5; stroke-linecap: round"/>
   </g>
   <g id="line2d_39">
    <path d="M 70.04 207.750797 
L 275.173798 207.750797 
L 277.333101 60.501367 
L 279.492404 61.452063 
L 281.651707 58.619091 
L 283.81101 52.643051 
L 285.970314 50.636512 
L 288.129617 49.926474 
L 290.28892 45.940392 
L 292.448223 192.862745 
L 294.607526 80.421843 
L 296.766829 89.774457 
L 298.926132 90.753014 
L 301.085436 102.014521 
L 303.244739 125.985999 
L 305.404042 135.043222 
L 307.563345 139.723025 
L 309.722648 143.144769 
L 311.881951 159.550924 
L 314.041254 163.578072 
L 316.200557 161.670988 
L 318.359861 156.627209 
L 320.519164 161.952656 
L 322.678467 164.707963 
L 324.83777 159.510614 
L 326.997073 163.907569 
L 329.156376 191.41994 
L 331.315679 192.403494 
L 333.474983 205.772199 
L 335.634286 202.649396 
L 337.793589 197.582817 
L 339.952892 193.170115 
L 342.112195 190.912482 
L 344.271498 194.759036 
L 346.430801 187.524513 
L 348.590105 201.510132 
L 350.749408 201.53708 
L 352.908711 207.750797 
L 689.76 207.750797 
L 689.76 207.750797 
" clip-path="url(#p30fe57f2bc)" style="fill: none; stroke-dasharray: 14.8,6.4; stroke-dashoffset: 0; stroke: #ff0000; stroke-width: 4"/>
   </g>
   <g id="line2d_40">
    <path d="M 70.04 207.750797 
L 275.173798 207.750797 
L 277.333101 60.544991 
L 279.492404 69.190562 
L 281.651707 54.860563 
L 283.81101 53.424879 
L 285.970314 42.623359 
L 288.129617 41.956467 
L 290.28892 44.177336 
L 292.448223 81.998148 
L 294.607526 88.025621 
L 296.766829 82.508072 
L 298.926132 98.354452 
L 301.085436 102.133591 
L 303.244739 128.089831 
L 305.404042 128.74868 
L 307.563345 145.537764 
L 309.722648 140.612736 
L 311.881951 157.714305 
L 314.041254 164.260971 
L 316.200557 160.630037 
L 318.359861 155.751893 
L 320.519164 162.99507 
L 322.678467 162.882216 
L 324.83777 158.396637 
L 326.997073 163.322497 
L 329.156376 191.802185 
L 331.315679 192.924521 
L 333.474983 205.73042 
L 335.634286 202.869783 
L 339.952892 193.343786 
L 342.112195 190.727474 
L 344.271498 195.268606 
L 346.430801 187.520246 
L 348.590105 201.504686 
L 350.749408 201.680119 
L 352.908711 207.750797 
L 689.76 207.750797 
L 689.76 207.750797 
" clip-path="url(#p30fe57f2bc)" style="fill: none; stroke: #000000; stroke-opacity: 0.6; stroke-width: 1.5; stroke-linecap: round"/>
   </g>
   <g id="line2d_41">
    <path d="M 70.04 207.750797 
L 275.173798 207.750797 
L 277.333101 70.8469 
L 279.492404 74.175768 
L 281.651707 48.393212 
L 283.81101 136.227294 
L 285.970314 143.186631 
L 288.129617 43.296904 
L 290.28892 44.9134 
L 292.448223 87.84641 
L 294.607526 171.331201 
L 296.766829 78.169081 
L 298.926132 177.41528 
L 301.085436 87.522107 
L 303.244739 127.568686 
L 305.404042 129.200121 
L 307.563345 147.252637 
L 309.722648 154.126148 
L 311.881951 161.892917 
L 314.041254 163.203422 
L 316.200557 166.321784 
L 318.359861 158.072616 
L 320.519164 163.900331 
L 322.678467 166.008744 
L 324.83777 157.047393 
L 326.997073 165.642051 
L 329.156376 189.003236 
L 331.315679 192.96968 
L 333.474983 205.711496 
L 335.634286 203.0711 
L 337.793589 195.966555 
L 339.952892 192.991432 
L 342.112195 190.432496 
L 344.271498 196.644137 
L 346.430801 190.072572 
L 348.590105 202.169505 
L 350.749408 201.183142 
L 352.908711 207.750797 
L 689.76 207.750797 
L 689.76 207.750797 
" clip-path="url(#p30fe57f2bc)" style="fill: none; stroke: #ffa500; stroke-opacity: 0.6; stroke-width: 1.5; stroke-linecap: round"/>
   </g>
   <g id="line2d_42">
    <path d="M 70.04 207.750797 
L 275.173798 207.750797 
L 277.333101 60.501367 
L 279.492404 61.452063 
L 281.651707 58.619091 
L 283.81101 52.643051 
L 285.970314 50.636512 
L 288.129617 49.926474 
L 290.28892 45.940392 
L 292.448223 192.862745 
L 294.607526 80.421843 
L 296.766829 89.774457 
L 298.926132 90.753014 
L 301.085436 102.014521 
L 303.244739 125.985999 
L 305.404042 135.043222 
L 307.563345 139.723025 
L 309.722648 143.144769 
L 311.881951 159.550924 
L 314.041254 163.578072 
L 316.200557 161.670988 
L 318.359861 156.627209 
L 320.519164 161.952656 
L 322.678467 164.707963 
L 324.83777 159.510614 
L 326.997073 163.907569 
L 329.156376 191.41994 
L 331.315679 192.403494 
L 333.474983 205.772199 
L 335.634286 202.649396 
L 337.793589 197.582817 
L 339.952892 193.170115 
L 342.112195 190.912482 
L 344.271498 194.759036 
L 346.430801 187.524513 
L 348.590105 201.510132 
L 350.749408 201.53708 
L 352.908711 207.750797 
L 689.76 207.750797 
L 689.76 207.750797 
" clip-path="url(#p30fe57f2bc)" style="fill: none; stroke-dasharray: 14.8,6.4; stroke-dashoffset: 0; stroke: #ff0000; stroke-width: 4"/>
   </g>
   <g id="line2d_43">
    <path d="M 70.04 207.750797 
L 249.26216 207.750797 
L 251.421463 111.909275 
L 253.580767 95.613709 
L 255.74007 94.488078 
L 257.899373 104.752406 
L 260.058676 102.329741 
L 262.217979 100.37602 
L 264.377282 99.86764 
L 266.536585 88.159069 
L 268.695889 83.680418 
L 270.855192 78.192391 
L 273.014495 87.19313 
L 275.173798 92.728781 
L 277.333101 56.441527 
L 279.492404 64.824851 
L 281.651707 52.773353 
L 283.81101 60.817371 
L 285.970314 59.89813 
L 288.129617 38.692895 
L 290.28892 49.302236 
L 292.448223 93.296265 
L 294.607526 84.382804 
L 296.766829 94.435661 
L 298.926132 85.051207 
L 301.085436 113.335425 
L 303.244739 128.764276 
L 305.404042 146.670466 
L 307.563345 154.908313 
L 309.722648 143.930143 
L 311.881951 176.551962 
L 314.041254 177.44974 
L 316.200557 175.417153 
L 318.359861 170.957266 
L 320.519164 178.133106 
L 322.678467 177.296099 
L 324.83777 170.714837 
L 326.997073 178.567207 
L 329.156376 191.741425 
L 331.315679 192.581619 
L 333.474983 207.325263 
L 335.634286 206.657907 
L 337.793589 205.672913 
L 339.952892 204.875741 
L 342.112195 203.911943 
L 344.271498 204.476454 
L 346.430801 202.794817 
L 348.590105 205.861061 
L 350.749408 205.618246 
L 352.908711 190.057588 
L 355.068014 207.750797 
L 689.76 207.750797 
L 689.76 207.750797 
" clip-path="url(#p30fe57f2bc)" style="fill: none; stroke: #000000; stroke-opacity: 0.6; stroke-width: 1.5; stroke-linecap: round"/>
   </g>
   <g id="line2d_44">
    <path d="M 70.04 207.750797 
L 275.173798 207.750797 
L 277.333101 60.603274 
L 279.492404 52.297672 
L 281.651707 70.04013 
L 283.81101 39.721353 
L 285.970314 41.95126 
L 288.129617 51.655842 
L 290.28892 47.978002 
L 292.448223 69.081186 
L 294.607526 74.635628 
L 296.766829 94.621964 
L 298.926132 97.713876 
L 301.085436 89.519351 
L 303.244739 122.052311 
L 305.404042 142.855223 
L 307.563345 126.391433 
L 309.722648 143.714201 
L 311.881951 151.482339 
L 314.041254 166.111351 
L 316.200557 166.306225 
L 318.359861 157.121515 
L 320.519164 160.602068 
L 322.678467 168.745442 
L 324.83777 157.112202 
L 326.997073 158.439827 
L 329.156376 188.30132 
L 331.315679 193.000709 
L 333.474983 205.853172 
L 335.634286 203.462746 
L 337.793589 196.18696 
L 339.952892 192.70131 
L 342.112195 192.994429 
L 344.271498 195.585688 
L 346.430801 186.970612 
L 348.590105 201.453819 
L 350.749408 200.07963 
L 352.908711 207.750797 
L 689.76 207.750797 
L 689.76 207.750797 
" clip-path="url(#p30fe57f2bc)" style="fill: none; stroke: #ffa500; stroke-opacity: 0.6; stroke-width: 1.5; stroke-linecap: round"/>
   </g>
   <g id="line2d_45">
    <path d="M 70.04 207.750797 
L 275.173798 207.750797 
L 277.333101 60.501367 
L 279.492404 61.452063 
L 281.651707 58.619091 
L 283.81101 52.643051 
L 285.970314 50.636512 
L 288.129617 49.926474 
L 290.28892 45.940392 
L 292.448223 192.862745 
L 294.607526 80.421843 
L 296.766829 89.774457 
L 298.926132 90.753014 
L 301.085436 102.014521 
L 303.244739 125.985999 
L 305.404042 135.043222 
L 307.563345 139.723025 
L 309.722648 143.144769 
L 311.881951 159.550924 
L 314.041254 163.578072 
L 316.200557 161.670988 
L 318.359861 156.627209 
L 320.519164 161.952656 
L 322.678467 164.707963 
L 324.83777 159.510614 
L 326.997073 163.907569 
L 329.156376 191.41994 
L 331.315679 192.403494 
L 333.474983 205.772199 
L 335.634286 202.649396 
L 337.793589 197.582817 
L 339.952892 193.170115 
L 342.112195 190.912482 
L 344.271498 194.759036 
L 346.430801 187.524513 
L 348.590105 201.510132 
L 350.749408 201.53708 
L 352.908711 207.750797 
L 689.76 207.750797 
L 689.76 207.750797 
" clip-path="url(#p30fe57f2bc)" style="fill: none; stroke-dasharray: 14.8,6.4; stroke-dashoffset: 0; stroke: #ff0000; stroke-width: 4"/>
   </g>
   <g id="line2d_46">
    <path d="M 70.04 207.750797 
L 275.173798 207.750797 
L 277.333101 66.368256 
L 279.492404 71.945101 
L 281.651707 67.441381 
L 283.81101 46.138087 
L 285.970314 46.383912 
L 288.129617 104.133604 
L 290.28892 103.931723 
L 292.448223 71.534326 
L 294.607526 142.744405 
L 296.766829 138.721958 
L 298.926132 131.534504 
L 301.085436 154.875065 
L 303.244739 123.134497 
L 305.404042 136.697904 
L 307.563345 135.769944 
L 309.722648 141.424903 
L 311.881951 157.126846 
L 314.041254 165.901918 
L 316.200557 159.299382 
L 318.359861 156.264201 
L 320.519164 165.16181 
L 322.678467 164.19739 
L 324.83777 154.982481 
L 326.997073 163.808454 
L 329.156376 191.76702 
L 331.315679 191.867875 
L 333.474983 205.723918 
L 335.634286 202.860932 
L 337.793589 197.272725 
L 339.952892 194.366414 
L 342.112195 191.14916 
L 344.271498 194.01872 
L 346.430801 187.275828 
L 348.590105 201.458393 
L 350.749408 201.862635 
L 352.908711 207.750797 
L 689.76 207.750797 
L 689.76 207.750797 
" clip-path="url(#p30fe57f2bc)" style="fill: none; stroke: #000000; stroke-opacity: 0.6; stroke-width: 1.5; stroke-linecap: round"/>
   </g>
   <g id="line2d_47">
    <path d="M 70.04 207.750797 
L 275.173798 207.750797 
L 277.333101 76.815317 
L 279.492404 94.083256 
L 281.651707 53.96166 
L 283.81101 42.545028 
L 285.970314 64.64097 
L 288.129617 46.168548 
L 290.28892 49.480741 
L 292.448223 96.964235 
L 294.607526 88.567261 
L 296.766829 87.016713 
L 298.926132 75.590232 
L 301.085436 101.51341 
L 303.244739 130.809306 
L 305.404042 147.992403 
L 307.563345 138.866511 
L 309.722648 141.871752 
L 311.881951 157.705671 
L 314.041254 163.234804 
L 316.200557 154.996658 
L 318.359861 164.702466 
L 320.519164 158.180127 
L 322.678467 167.695813 
L 324.83777 160.370796 
L 326.997073 164.842949 
L 329.156376 191.870763 
L 331.315679 191.441619 
L 333.474983 205.900118 
L 335.634286 202.495213 
L 337.793589 198.3121 
L 339.952892 191.64402 
L 342.112195 188.577298 
L 344.271498 193.578017 
L 346.430801 187.064876 
L 348.590105 201.647039 
L 350.749408 202.186604 
L 352.908711 207.750797 
L 689.76 207.750797 
L 689.76 207.750797 
" clip-path="url(#p30fe57f2bc)" style="fill: none; stroke: #ffa500; stroke-opacity: 0.6; stroke-width: 1.5; stroke-linecap: round"/>
   </g>
   <g id="line2d_48">
    <path d="M 70.04 207.750797 
L 275.173798 207.750797 
L 277.333101 60.501367 
L 279.492404 61.452063 
L 281.651707 58.619091 
L 283.81101 52.643051 
L 285.970314 50.636512 
L 288.129617 49.926474 
L 290.28892 45.940392 
L 292.448223 192.862745 
L 294.607526 80.421843 
L 296.766829 89.774457 
L 298.926132 90.753014 
L 301.085436 102.014521 
L 303.244739 125.985999 
L 305.404042 135.043222 
L 307.563345 139.723025 
L 309.722648 143.144769 
L 311.881951 159.550924 
L 314.041254 163.578072 
L 316.200557 161.670988 
L 318.359861 156.627209 
L 320.519164 161.952656 
L 322.678467 164.707963 
L 324.83777 159.510614 
L 326.997073 163.907569 
L 329.156376 191.41994 
L 331.315679 192.403494 
L 333.474983 205.772199 
L 335.634286 202.649396 
L 337.793589 197.582817 
L 339.952892 193.170115 
L 342.112195 190.912482 
L 344.271498 194.759036 
L 346.430801 187.524513 
L 348.590105 201.510132 
L 350.749408 201.53708 
L 352.908711 207.750797 
L 689.76 207.750797 
L 689.76 207.750797 
" clip-path="url(#p30fe57f2bc)" style="fill: none; stroke-dasharray: 14.8,6.4; stroke-dashoffset: 0; stroke: #ff0000; stroke-width: 4"/>
   </g>
   <g id="line2d_49">
    <path d="M 70.04 207.750797 
L 275.173798 207.750797 
L 277.333101 60.416564 
L 279.492404 64.164029 
L 281.651707 50.691259 
L 283.81101 54.778307 
L 285.970314 69.260659 
L 288.129617 50.770385 
L 290.28892 42.331819 
L 292.448223 81.524825 
L 294.607526 84.956258 
L 296.766829 91.464303 
L 298.926132 195.601466 
L 301.085436 108.609187 
L 303.244739 130.124028 
L 305.404042 133.079006 
L 307.563345 137.089613 
L 309.722648 142.737718 
L 311.881951 158.77399 
L 314.041254 167.645018 
L 316.200557 159.750382 
L 318.359861 153.850947 
L 320.519164 159.702684 
L 322.678467 164.193429 
L 324.83777 158.947496 
L 326.997073 160.052537 
L 329.156376 205.527017 
L 331.315679 205.038105 
L 333.474983 207.14152 
L 335.634286 206.365158 
L 337.793589 205.06327 
L 342.112195 203.43332 
L 344.271498 204.352598 
L 346.430801 202.463743 
L 348.590105 205.910415 
L 350.749408 205.647908 
L 352.908711 188.542824 
L 355.068014 207.750797 
L 689.76 207.750797 
L 689.76 207.750797 
" clip-path="url(#p30fe57f2bc)" style="fill: none; stroke: #000000; stroke-opacity: 0.6; stroke-width: 1.5; stroke-linecap: round"/>
   </g>
   <g id="line2d_50">
    <path d="M 70.04 207.750797 
L 275.173798 207.750797 
L 277.333101 59.914814 
L 279.492404 73.85528 
L 281.651707 52.3579 
L 283.81101 40.446955 
L 285.970314 57.21311 
L 288.129617 43.066736 
L 290.28892 66.364798 
L 292.448223 71.972782 
L 294.607526 92.55187 
L 296.766829 73.778112 
L 298.926132 95.17382 
L 301.085436 110.128723 
L 303.244739 118.879913 
L 305.404042 147.071623 
L 307.563345 139.602721 
L 311.881951 158.05044 
L 314.041254 163.738436 
L 316.200557 168.058131 
L 318.359861 157.350451 
L 320.519164 167.948817 
L 322.678467 161.621565 
L 324.83777 163.473258 
L 326.997073 167.850744 
L 329.156376 207.206137 
L 331.315679 207.181748 
L 333.474983 204.415391 
L 335.634286 200.634258 
L 337.793589 195.736066 
L 339.952892 194.155323 
L 342.112195 189.31322 
L 344.271498 191.388265 
L 346.430801 187.331041 
L 348.590105 199.092499 
L 350.749408 200.499982 
L 352.908711 206.680045 
L 355.068014 207.750797 
L 689.76 207.750797 
L 689.76 207.750797 
" clip-path="url(#p30fe57f2bc)" style="fill: none; stroke: #ffa500; stroke-opacity: 0.6; stroke-width: 1.5; stroke-linecap: round"/>
   </g>
   <g id="line2d_51">
    <path d="M 70.04 207.750797 
L 275.173798 207.750797 
L 277.333101 60.501367 
L 279.492404 61.452063 
L 281.651707 58.619091 
L 283.81101 52.643051 
L 285.970314 50.636512 
L 288.129617 49.926474 
L 290.28892 45.940392 
L 292.448223 192.862745 
L 294.607526 80.421843 
L 296.766829 89.774457 
L 298.926132 90.753014 
L 301.085436 102.014521 
L 303.244739 125.985999 
L 305.404042 135.043222 
L 307.563345 139.723025 
L 309.722648 143.144769 
L 311.881951 159.550924 
L 314.041254 163.578072 
L 316.200557 161.670988 
L 318.359861 156.627209 
L 320.519164 161.952656 
L 322.678467 164.707963 
L 324.83777 159.510614 
L 326.997073 163.907569 
L 329.156376 191.41994 
L 331.315679 192.403494 
L 333.474983 205.772199 
L 335.634286 202.649396 
L 337.793589 197.582817 
L 339.952892 193.170115 
L 342.112195 190.912482 
L 344.271498 194.759036 
L 346.430801 187.524513 
L 348.590105 201.510132 
L 350.749408 201.53708 
L 352.908711 207.750797 
L 689.76 207.750797 
L 689.76 207.750797 
" clip-path="url(#p30fe57f2bc)" style="fill: none; stroke-dasharray: 14.8,6.4; stroke-dashoffset: 0; stroke: #ff0000; stroke-width: 4"/>
   </g>
   <g id="line2d_52">
    <path d="M 70.04 207.750797 
L 275.173798 207.750797 
L 277.333101 57.72236 
L 279.492404 46.570047 
L 281.651707 54.202182 
L 283.81101 46.726158 
L 285.970314 57.479417 
L 288.129617 53.913933 
L 290.28892 42.990822 
L 292.448223 92.344916 
L 294.607526 79.806444 
L 296.766829 78.847981 
L 298.926132 85.255845 
L 301.085436 108.986874 
L 303.244739 119.76041 
L 305.404042 134.842731 
L 307.563345 135.840303 
L 309.722648 137.530562 
L 311.881951 157.876992 
L 314.041254 163.386355 
L 316.200557 161.494213 
L 318.359861 156.781593 
L 320.519164 161.030974 
L 322.678467 163.686758 
L 324.83777 159.804109 
L 326.997073 165.281877 
L 329.156376 205.510643 
L 331.315679 205.147595 
L 333.474983 207.114656 
L 335.634286 206.333219 
L 337.793589 205.025881 
L 339.952892 204.003279 
L 342.112195 203.504618 
L 344.271498 203.993945 
L 346.430801 202.256803 
L 348.590105 205.7568 
L 350.749408 205.581422 
L 352.908711 187.215731 
L 355.068014 207.750797 
L 689.76 207.750797 
L 689.76 207.750797 
" clip-path="url(#p30fe57f2bc)" style="fill: none; stroke: #000000; stroke-opacity: 0.6; stroke-width: 1.5; stroke-linecap: round"/>
   </g>
   <g id="line2d_53">
    <path d="M 70.04 207.750797 
L 275.173798 207.750797 
L 277.333101 72.506352 
L 279.492404 55.575117 
L 281.651707 60.339769 
L 283.81101 56.192076 
L 285.970314 40.115857 
L 288.129617 42.045373 
L 290.28892 43.071541 
L 292.448223 58.691809 
L 294.607526 68.533598 
L 296.766829 82.905833 
L 298.926132 99.510983 
L 301.085436 107.161974 
L 303.244739 124.093165 
L 305.404042 124.583352 
L 307.563345 142.941558 
L 309.722648 130.561396 
L 311.881951 161.333737 
L 314.041254 170.553808 
L 316.200557 162.687429 
L 318.359861 153.294815 
L 320.519164 162.480042 
L 322.678467 163.981078 
L 324.83777 164.620578 
L 326.997073 163.118614 
L 329.156376 205.621971 
L 331.315679 205.407614 
L 333.474983 207.165186 
L 335.634286 206.440205 
L 337.793589 205.341817 
L 339.952892 204.484966 
L 342.112195 204.217506 
L 344.271498 204.664082 
L 346.430801 203.206018 
L 348.590105 188.737286 
L 350.749408 186.087226 
L 352.908711 192.599059 
L 355.068014 207.750797 
L 689.76 207.750797 
L 689.76 207.750797 
" clip-path="url(#p30fe57f2bc)" style="fill: none; stroke: #ffa500; stroke-opacity: 0.6; stroke-width: 1.5; stroke-linecap: round"/>
   </g>
   <g id="line2d_54">
    <path d="M 70.04 207.750797 
L 275.173798 207.750797 
L 277.333101 60.501367 
L 279.492404 61.452063 
L 281.651707 58.619091 
L 283.81101 52.643051 
L 285.970314 50.636512 
L 288.129617 49.926474 
L 290.28892 45.940392 
L 292.448223 192.862745 
L 294.607526 80.421843 
L 296.766829 89.774457 
L 298.926132 90.753014 
L 301.085436 102.014521 
L 303.244739 125.985999 
L 305.404042 135.043222 
L 307.563345 139.723025 
L 309.722648 143.144769 
L 311.881951 159.550924 
L 314.041254 163.578072 
L 316.200557 161.670988 
L 318.359861 156.627209 
L 320.519164 161.952656 
L 322.678467 164.707963 
L 324.83777 159.510614 
L 326.997073 163.907569 
L 329.156376 191.41994 
L 331.315679 192.403494 
L 333.474983 205.772199 
L 335.634286 202.649396 
L 337.793589 197.582817 
L 339.952892 193.170115 
L 342.112195 190.912482 
L 344.271498 194.759036 
L 346.430801 187.524513 
L 348.590105 201.510132 
L 350.749408 201.53708 
L 352.908711 207.750797 
L 689.76 207.750797 
L 689.76 207.750797 
" clip-path="url(#p30fe57f2bc)" style="fill: none; stroke-dasharray: 14.8,6.4; stroke-dashoffset: 0; stroke: #ff0000; stroke-width: 4"/>
   </g>
   <g id="line2d_55">
    <path d="M 70.04 207.750797 
L 275.173798 207.750797 
L 277.333101 49.341195 
L 279.492404 69.242264 
L 281.651707 70.158922 
L 283.81101 42.359304 
L 285.970314 42.794687 
L 288.129617 57.276641 
L 290.28892 54.168917 
L 292.448223 92.447555 
L 294.607526 66.064142 
L 296.766829 86.309287 
L 298.926132 98.603411 
L 301.085436 94.440049 
L 303.244739 125.778765 
L 305.404042 132.08746 
L 307.563345 140.795067 
L 309.722648 148.411586 
L 311.881951 162.228183 
L 314.041254 163.308011 
L 316.200557 158.113399 
L 318.359861 158.426731 
L 320.519164 160.854609 
L 322.678467 162.877381 
L 324.83777 157.114685 
L 326.997073 165.220543 
L 329.156376 190.748764 
L 331.315679 193.155637 
L 333.474983 205.891094 
L 335.634286 202.956893 
L 337.793589 197.412141 
L 339.952892 194.669517 
L 342.112195 189.761511 
L 344.271498 193.416351 
L 346.430801 187.756336 
L 348.590105 201.633363 
L 350.749408 201.940269 
L 352.908711 207.750797 
L 689.76 207.750797 
L 689.76 207.750797 
" clip-path="url(#p30fe57f2bc)" style="fill: none; stroke: #000000; stroke-opacity: 0.6; stroke-width: 1.5; stroke-linecap: round"/>
   </g>
   <g id="line2d_56">
    <path d="M 70.04 207.750797 
L 275.173798 207.750797 
L 277.333101 39.791049 
L 279.492404 61.317867 
L 281.651707 46.29726 
L 283.81101 52.943882 
L 285.970314 64.588321 
L 288.129617 55.797288 
L 290.28892 42.481387 
L 292.448223 94.993988 
L 294.607526 69.563282 
L 296.766829 99.664904 
L 298.926132 89.611946 
L 301.085436 197.577434 
L 303.244739 129.955948 
L 305.404042 141.030938 
L 307.563345 150.705129 
L 309.722648 145.17693 
L 311.881951 153.522877 
L 314.041254 164.608296 
L 316.200557 154.833814 
L 318.359861 159.352873 
L 320.519164 155.472748 
L 322.678467 162.718016 
L 324.83777 160.054023 
L 326.997073 166.643116 
L 329.156376 190.841917 
L 331.315679 190.742934 
L 333.474983 205.634269 
L 335.634286 202.385634 
L 337.793589 197.391805 
L 339.952892 194.333813 
L 342.112195 192.259581 
L 344.271498 195.700686 
L 346.430801 187.668191 
L 348.590105 200.843299 
L 350.749408 201.754567 
L 352.908711 207.750797 
L 689.76 207.750797 
L 689.76 207.750797 
" clip-path="url(#p30fe57f2bc)" style="fill: none; stroke: #ffa500; stroke-opacity: 0.6; stroke-width: 1.5; stroke-linecap: round"/>
   </g>
   <g id="patch_3">
    <path d="M 70.04 216.203692 
L 70.04 30.24 
" style="fill: none; stroke: #cccccc; stroke-width: 0.8; stroke-linejoin: miter; stroke-linecap: square"/>
   </g>
   <g id="patch_4">
    <path d="M 689.76 216.203692 
L 689.76 30.24 
" style="fill: none; stroke: #cccccc; stroke-width: 0.8; stroke-linejoin: miter; stroke-linecap: square"/>
   </g>
   <g id="patch_5">
    <path d="M 70.04 216.203692 
L 689.76 216.203692 
" style="fill: none; stroke: #cccccc; stroke-width: 0.8; stroke-linejoin: miter; stroke-linecap: square"/>
   </g>
   <g id="patch_6">
    <path d="M 70.04 30.24 
L 689.76 30.24 
" style="fill: none; stroke: #cccccc; stroke-width: 0.8; stroke-linejoin: miter; stroke-linecap: square"/>
   </g>
   <g id="legend_1">
    <g id="line2d_57">
     <path d="M 553.060781 48.99 
L 568.060781 48.99 
L 583.060781 48.99 
" style="fill: none; stroke-dasharray: 14.8,6.4; stroke-dashoffset: 0; stroke: #ff0000; stroke-width: 4"/>
    </g>
    <g id="text_28">
     <!-- Ideal forecast -->
     <g style="fill: #262626" transform="translate(595.060781 54.24) scale(0.15 -0.15)">
      <defs>
       <path id="TimesNewRomanPSMT-49" d="M 1975 116 
L 1975 0 
L 159 0 
L 159 116 
L 309 116 
Q 572 116 691 269 
Q 766 369 766 750 
L 766 3488 
Q 766 3809 725 3913 
Q 694 3991 597 4047 
Q 459 4122 309 4122 
L 159 4122 
L 159 4238 
L 1975 4238 
L 1975 4122 
L 1822 4122 
Q 1563 4122 1444 3969 
Q 1366 3869 1366 3488 
L 1366 750 
Q 1366 428 1406 325 
Q 1438 247 1538 191 
Q 1672 116 1822 116 
L 1975 116 
z
" transform="scale(0.015625)"/>
       <path id="TimesNewRomanPSMT-64" d="M 2222 322 
Q 2013 103 1813 7 
Q 1613 -88 1381 -88 
Q 913 -88 563 304 
Q 213 697 213 1313 
Q 213 1928 600 2439 
Q 988 2950 1597 2950 
Q 1975 2950 2222 2709 
L 2222 3238 
Q 2222 3728 2198 3840 
Q 2175 3953 2125 3993 
Q 2075 4034 2000 4034 
Q 1919 4034 1784 3984 
L 1744 4094 
L 2597 4444 
L 2738 4444 
L 2738 1134 
Q 2738 631 2761 520 
Q 2784 409 2836 365 
Q 2888 322 2956 322 
Q 3041 322 3181 375 
L 3216 266 
L 2366 -88 
L 2222 -88 
L 2222 322 
z
M 2222 541 
L 2222 2016 
Q 2203 2228 2109 2403 
Q 2016 2578 1861 2667 
Q 1706 2756 1559 2756 
Q 1284 2756 1069 2509 
Q 784 2184 784 1559 
Q 784 928 1059 592 
Q 1334 256 1672 256 
Q 1956 256 2222 541 
z
" transform="scale(0.015625)"/>
       <path id="TimesNewRomanPSMT-61" d="M 1822 413 
Q 1381 72 1269 19 
Q 1100 -59 909 -59 
Q 613 -59 420 144 
Q 228 347 228 678 
Q 228 888 322 1041 
Q 450 1253 767 1440 
Q 1084 1628 1822 1897 
L 1822 2009 
Q 1822 2438 1686 2597 
Q 1550 2756 1291 2756 
Q 1094 2756 978 2650 
Q 859 2544 859 2406 
L 866 2225 
Q 866 2081 792 2003 
Q 719 1925 600 1925 
Q 484 1925 411 2006 
Q 338 2088 338 2228 
Q 338 2497 613 2722 
Q 888 2947 1384 2947 
Q 1766 2947 2009 2819 
Q 2194 2722 2281 2516 
Q 2338 2381 2338 1966 
L 2338 994 
Q 2338 584 2353 492 
Q 2369 400 2405 369 
Q 2441 338 2488 338 
Q 2538 338 2575 359 
Q 2641 400 2828 588 
L 2828 413 
Q 2478 -56 2159 -56 
Q 2006 -56 1915 50 
Q 1825 156 1822 413 
z
M 1822 616 
L 1822 1706 
Q 1350 1519 1213 1441 
Q 966 1303 859 1153 
Q 753 1003 753 825 
Q 753 600 887 451 
Q 1022 303 1197 303 
Q 1434 303 1822 616 
z
" transform="scale(0.015625)"/>
       <path id="TimesNewRomanPSMT-6c" d="M 1184 4444 
L 1184 647 
Q 1184 378 1223 290 
Q 1263 203 1344 158 
Q 1425 113 1647 113 
L 1647 0 
L 244 0 
L 244 113 
Q 441 113 512 153 
Q 584 194 625 287 
Q 666 381 666 647 
L 666 3247 
Q 666 3731 644 3842 
Q 622 3953 573 3993 
Q 525 4034 450 4034 
Q 369 4034 244 3984 
L 191 4094 
L 1044 4444 
L 1184 4444 
z
" transform="scale(0.015625)"/>
       <path id="TimesNewRomanPSMT-66" d="M 1319 2638 
L 1319 756 
Q 1319 356 1406 250 
Q 1522 113 1716 113 
L 1975 113 
L 1975 0 
L 266 0 
L 266 113 
L 394 113 
Q 519 113 622 175 
Q 725 238 764 344 
Q 803 450 803 756 
L 803 2638 
L 247 2638 
L 247 2863 
L 803 2863 
L 803 3050 
Q 803 3478 940 3775 
Q 1078 4072 1361 4255 
Q 1644 4438 1997 4438 
Q 2325 4438 2600 4225 
Q 2781 4084 2781 3909 
Q 2781 3816 2700 3733 
Q 2619 3650 2525 3650 
Q 2453 3650 2373 3701 
Q 2294 3753 2178 3923 
Q 2063 4094 1966 4153 
Q 1869 4213 1750 4213 
Q 1606 4213 1506 4136 
Q 1406 4059 1362 3898 
Q 1319 3738 1319 3069 
L 1319 2863 
L 2056 2863 
L 2056 2638 
L 1319 2638 
z
" transform="scale(0.015625)"/>
       <path id="TimesNewRomanPSMT-63" d="M 2631 1088 
Q 2516 522 2178 217 
Q 1841 -88 1431 -88 
Q 944 -88 581 321 
Q 219 731 219 1428 
Q 219 2103 620 2525 
Q 1022 2947 1584 2947 
Q 2006 2947 2278 2723 
Q 2550 2500 2550 2259 
Q 2550 2141 2473 2067 
Q 2397 1994 2259 1994 
Q 2075 1994 1981 2113 
Q 1928 2178 1911 2362 
Q 1894 2547 1784 2644 
Q 1675 2738 1481 2738 
Q 1169 2738 978 2506 
Q 725 2200 725 1697 
Q 725 1184 976 792 
Q 1228 400 1656 400 
Q 1963 400 2206 609 
Q 2378 753 2541 1131 
L 2631 1088 
z
" transform="scale(0.015625)"/>
       <path id="TimesNewRomanPSMT-73" d="M 2050 2947 
L 2050 1972 
L 1947 1972 
Q 1828 2431 1642 2597 
Q 1456 2763 1169 2763 
Q 950 2763 815 2647 
Q 681 2531 681 2391 
Q 681 2216 781 2091 
Q 878 1963 1175 1819 
L 1631 1597 
Q 2266 1288 2266 781 
Q 2266 391 1970 151 
Q 1675 -88 1309 -88 
Q 1047 -88 709 6 
Q 606 38 541 38 
Q 469 38 428 -44 
L 325 -44 
L 325 978 
L 428 978 
Q 516 541 762 319 
Q 1009 97 1316 97 
Q 1531 97 1667 223 
Q 1803 350 1803 528 
Q 1803 744 1651 891 
Q 1500 1038 1047 1263 
Q 594 1488 453 1669 
Q 313 1847 313 2119 
Q 313 2472 555 2709 
Q 797 2947 1181 2947 
Q 1350 2947 1591 2875 
Q 1750 2828 1803 2828 
Q 1853 2828 1881 2850 
Q 1909 2872 1947 2947 
L 2050 2947 
z
" transform="scale(0.015625)"/>
       <path id="TimesNewRomanPSMT-74" d="M 1031 3803 
L 1031 2863 
L 1700 2863 
L 1700 2644 
L 1031 2644 
L 1031 788 
Q 1031 509 1111 412 
Q 1191 316 1316 316 
Q 1419 316 1516 380 
Q 1613 444 1666 569 
L 1788 569 
Q 1678 263 1478 108 
Q 1278 -47 1066 -47 
Q 922 -47 784 33 
Q 647 113 581 261 
Q 516 409 516 719 
L 516 2644 
L 63 2644 
L 63 2747 
Q 234 2816 414 2980 
Q 594 3144 734 3369 
Q 806 3488 934 3803 
L 1031 3803 
z
" transform="scale(0.015625)"/>
      </defs>
      <use xlink:href="#TimesNewRomanPSMT-49"/>
      <use xlink:href="#TimesNewRomanPSMT-64" x="33.300781"/>
      <use xlink:href="#TimesNewRomanPSMT-65" x="83.300781"/>
      <use xlink:href="#TimesNewRomanPSMT-61" x="127.685547"/>
      <use xlink:href="#TimesNewRomanPSMT-6c" x="172.070312"/>
      <use xlink:href="#TimesNewRomanPSMT-20" x="199.853516"/>
      <use xlink:href="#TimesNewRomanPSMT-66" x="224.853516"/>
      <use xlink:href="#TimesNewRomanPSMT-6f" x="258.154297"/>
      <use xlink:href="#TimesNewRomanPSMT-72" x="308.154297"/>
      <use xlink:href="#TimesNewRomanPSMT-65" x="341.455078"/>
      <use xlink:href="#TimesNewRomanPSMT-63" x="385.839844"/>
      <use xlink:href="#TimesNewRomanPSMT-61" x="430.224609"/>
      <use xlink:href="#TimesNewRomanPSMT-73" x="474.609375"/>
      <use xlink:href="#TimesNewRomanPSMT-74" x="513.525391"/>
     </g>
    </g>
    <g id="line2d_58">
     <path d="M 553.060781 70.198594 
L 568.060781 70.198594 
L 583.060781 70.198594 
" style="fill: none; stroke: #000000; stroke-opacity: 0.6; stroke-width: 1.5; stroke-linecap: round"/>
    </g>
    <g id="text_29">
     <!-- 5% Error -->
     <g style="fill: #262626" transform="translate(595.060781 75.448594) scale(0.15 -0.15)">
      <defs>
       <path id="TimesNewRomanPSMT-25" d="M 4350 4334 
L 1263 -175 
L 984 -175 
L 4072 4334 
L 4350 4334 
z
M 1138 4334 
Q 1559 4334 1792 3984 
Q 2025 3634 2025 3181 
Q 2025 2638 1762 2341 
Q 1500 2044 1131 2044 
Q 884 2044 678 2180 
Q 472 2316 348 2584 
Q 225 2853 225 3181 
Q 225 3509 350 3786 
Q 475 4063 692 4198 
Q 909 4334 1138 4334 
z
M 1128 4159 
Q 969 4159 845 3971 
Q 722 3784 722 3184 
Q 722 2750 791 2522 
Q 844 2350 956 2256 
Q 1022 2200 1119 2200 
Q 1269 2200 1375 2363 
Q 1531 2603 1531 3166 
Q 1531 3759 1378 4000 
Q 1278 4159 1128 4159 
z
M 4206 2103 
Q 4428 2103 4648 1962 
Q 4869 1822 4989 1553 
Q 5109 1284 5109 963 
Q 5109 409 4843 117 
Q 4578 -175 4216 -175 
Q 3988 -175 3773 -34 
Q 3559 106 3436 367 
Q 3313 628 3313 963 
Q 3313 1291 3436 1562 
Q 3559 1834 3773 1968 
Q 3988 2103 4206 2103 
z
M 4209 1938 
Q 4059 1938 3950 1769 
Q 3809 1550 3809 941 
Q 3809 381 3953 159 
Q 4059 0 4209 0 
Q 4353 0 4466 172 
Q 4616 400 4616 956 
Q 4616 1544 4466 1778 
Q 4363 1938 4209 1938 
z
" transform="scale(0.015625)"/>
       <path id="TimesNewRomanPSMT-45" d="M 1338 4006 
L 1338 2331 
L 2269 2331 
Q 2631 2331 2753 2441 
Q 2916 2584 2934 2947 
L 3050 2947 
L 3050 1472 
L 2934 1472 
Q 2891 1781 2847 1869 
Q 2791 1978 2662 2040 
Q 2534 2103 2269 2103 
L 1338 2103 
L 1338 706 
Q 1338 425 1363 364 
Q 1388 303 1450 267 
Q 1513 231 1688 231 
L 2406 231 
Q 2766 231 2928 281 
Q 3091 331 3241 478 
Q 3434 672 3638 1063 
L 3763 1063 
L 3397 0 
L 131 0 
L 131 116 
L 281 116 
Q 431 116 566 188 
Q 666 238 702 338 
Q 738 438 738 747 
L 738 3500 
Q 738 3903 656 3997 
Q 544 4122 281 4122 
L 131 4122 
L 131 4238 
L 3397 4238 
L 3444 3309 
L 3322 3309 
Q 3256 3644 3176 3769 
Q 3097 3894 2941 3959 
Q 2816 4006 2500 4006 
L 1338 4006 
z
" transform="scale(0.015625)"/>
      </defs>
      <use xlink:href="#TimesNewRomanPSMT-35"/>
      <use xlink:href="#TimesNewRomanPSMT-25" x="50"/>
      <use xlink:href="#TimesNewRomanPSMT-20" x="133.300781"/>
      <use xlink:href="#TimesNewRomanPSMT-45" x="158.300781"/>
      <use xlink:href="#TimesNewRomanPSMT-72" x="219.384766"/>
      <use xlink:href="#TimesNewRomanPSMT-72" x="252.685547"/>
      <use xlink:href="#TimesNewRomanPSMT-6f" x="285.986328"/>
      <use xlink:href="#TimesNewRomanPSMT-72" x="335.986328"/>
     </g>
    </g>
    <g id="line2d_59">
     <path d="M 553.060781 91.407188 
L 568.060781 91.407188 
L 583.060781 91.407188 
" style="fill: none; stroke: #ffa500; stroke-opacity: 0.6; stroke-width: 1.5; stroke-linecap: round"/>
    </g>
    <g id="text_30">
     <!-- 20% Error -->
     <g style="fill: #262626" transform="translate(595.060781 96.657188) scale(0.15 -0.15)">
      <use xlink:href="#TimesNewRomanPSMT-32"/>
      <use xlink:href="#TimesNewRomanPSMT-30" x="50"/>
      <use xlink:href="#TimesNewRomanPSMT-25" x="100"/>
      <use xlink:href="#TimesNewRomanPSMT-20" x="183.300781"/>
      <use xlink:href="#TimesNewRomanPSMT-45" x="208.300781"/>
      <use xlink:href="#TimesNewRomanPSMT-72" x="269.384766"/>
      <use xlink:href="#TimesNewRomanPSMT-72" x="302.685547"/>
      <use xlink:href="#TimesNewRomanPSMT-6f" x="335.986328"/>
      <use xlink:href="#TimesNewRomanPSMT-72" x="385.986328"/>
     </g>
    </g>
   </g>
  </g>
 </g>
 <defs>
  <clipPath id="p30fe57f2bc">
   <rect x="70.04" y="30.24" width="619.72" height="185.963692"/>
  </clipPath>
 </defs>
</svg>
